<?xml version="1.0" standalone="no"?>
<!DOCTYPE svg PUBLIC "-//W3C//DTD SVG 20010904//EN"
 "http://www.w3.org/TR/2001/REC-SVG-20010904/DTD/svg10.dtd">
<svg version="1.0" xmlns="http://www.w3.org/2000/svg"
 width="1295.000000pt" height="729.000000pt" viewBox="0 0 1295.000000 729.000000"
 preserveAspectRatio="xMidYMid meet">

<g transform="translate(0.000000,729.000000) scale(0.100000,-0.100000)"
fill="#EAB308" stroke="none">
<path d="M6300 7169 c-25 -13 -56 -19 -105 -19 -70 0 -189 -35 -226 -66 -8 -8
-19 -14 -24 -14 -5 0 -17 -7 -27 -17 -10 -9 -26 -21 -37 -27 -10 -6 -37 -24
-61 -41 -23 -16 -63 -42 -89 -56 -45 -25 -61 -45 -200 -242 -23 -32 -41 -60
-41 -64 0 -3 -11 -21 -24 -38 -14 -18 -28 -45 -32 -61 -4 -16 -16 -49 -27 -74
-11 -24 -22 -61 -25 -82 -2 -21 -9 -38 -13 -38 -5 0 -9 -6 -9 -13 0 -8 -6 -27
-14 -43 -8 -16 -17 -45 -20 -65 -6 -33 -4 -37 19 -41 21 -5 25 -1 26 21 l2 26
4 -25 c3 -14 10 -28 17 -32 6 -4 -1 -8 -16 -8 -16 0 -28 -6 -29 -12 0 -7 -2
-23 -3 -35 -2 -13 2 -19 10 -16 7 2 10 11 7 19 -4 10 0 12 11 8 9 -3 16 -17
16 -29 0 -24 -10 -26 -60 -10 -10 3 -21 1 -25 -4 -4 -7 1 -8 11 -4 12 4 15 2
12 -8 -3 -8 -11 -13 -17 -11 -8 1 -9 -2 -5 -9 5 -9 2 -10 -12 -5 -15 6 -17 5
-6 -5 14 -15 16 -33 2 -24 -5 3 -10 2 -10 -4 0 -5 5 -11 12 -13 6 -2 15 -35
19 -74 7 -66 7 -65 4 22 -4 103 6 121 62 116 31 -3 31 -3 23 32 -4 21 -4 36 1
36 5 0 9 -5 9 -10 0 -15 33 -8 46 9 6 8 21 15 33 16 17 1 21 -3 18 -17 -4 -14
0 -18 18 -18 14 0 25 -7 28 -17 4 -16 5 -16 12 1 6 13 4 21 -3 24 -14 4 -16
32 -3 32 5 0 12 -6 14 -12 3 -7 6 -1 6 14 1 19 -3 26 -13 22 -11 -4 -11 6 -4
53 5 31 14 60 19 64 6 3 10 8 9 10 -8 17 59 181 79 193 5 4 12 20 16 36 4 17
13 30 20 30 23 0 85 33 79 42 -3 4 -12 1 -20 -7 -18 -18 -38 -10 -29 12 4 13
3 14 -10 3 -12 -10 -15 -10 -15 4 0 9 -6 16 -14 16 -8 0 -16 10 -18 23 -3 19
-9 22 -46 23 -23 1 -45 4 -49 8 -3 3 11 22 33 42 21 19 34 33 28 30 -14 -7
-38 19 -30 33 4 5 22 7 40 4 26 -4 39 0 55 16 30 30 44 27 39 -9 -5 -36 7 -50
17 -20 4 11 11 18 16 14 6 -3 9 6 7 22 -2 15 3 29 10 31 8 3 12 -7 12 -32 0
-33 2 -36 22 -30 17 6 20 4 15 -10 -4 -9 -7 -18 -7 -21 0 -2 -8 0 -17 3 -15 6
-16 5 -3 -9 14 -15 16 -15 32 5 16 21 16 23 -3 44 l-21 21 21 7 c28 8 59 -10
63 -37 2 -13 7 -21 12 -20 5 2 12 0 15 -5 3 -4 22 -16 42 -27 26 -13 39 -27
43 -48 3 -16 15 -41 26 -55 11 -14 20 -32 20 -40 0 -28 31 -73 61 -88 38 -20
78 -54 91 -79 7 -14 -1 -11 -34 12 -23 16 -63 33 -87 37 -39 7 -59 17 -96 52
-11 10 -14 10 -18 0 -3 -7 -6 -5 -6 6 -1 18 -21 25 -21 7 0 -5 -4 -10 -10 -10
-5 0 -6 7 -3 17 5 11 3 14 -6 9 -8 -6 -7 2 3 22 9 17 20 34 26 37 5 3 10 10
10 15 0 4 -18 -1 -40 -13 -22 -12 -40 -26 -40 -31 0 -5 14 -33 30 -63 17 -29
30 -60 30 -68 0 -8 5 -15 10 -15 6 0 10 -10 10 -23 0 -13 20 -44 49 -75 38
-41 46 -54 35 -62 -9 -9 -15 -6 -24 10 -11 20 -13 20 -35 6 -20 -13 -25 -13
-41 0 -18 14 -18 15 3 9 12 -3 25 -1 29 6 4 7 3 9 -4 6 -16 -11 -44 4 -38 20
3 8 1 11 -4 8 -6 -4 -7 5 -4 23 6 31 -11 76 -26 67 -4 -3 -16 2 -24 11 -18 17
-22 39 -6 29 6 -3 10 3 10 14 0 13 -5 19 -14 15 -10 -4 -16 5 -21 26 -4 17 -4
34 -1 37 3 4 6 -3 6 -15 0 -11 5 -24 10 -27 7 -4 8 3 4 22 -9 38 -14 44 -26
37 -7 -5 -9 -1 -5 9 4 11 2 14 -9 10 -8 -3 -14 -19 -14 -39 0 -19 -4 -34 -9
-34 -5 0 -12 -12 -15 -26 -4 -14 -16 -38 -26 -53 -42 -56 -79 -252 -69 -361 1
-8 -2 -24 -7 -34 -5 -14 -4 -17 5 -11 19 11 31 -15 18 -36 -8 -13 -6 -23 7
-44 10 -15 15 -33 12 -41 -3 -8 -2 -14 3 -14 5 0 23 -34 41 -75 18 -41 37 -75
41 -75 5 0 9 -6 9 -14 0 -8 17 -45 37 -83 20 -37 41 -78 47 -90 20 -41 37 -37
30 7 -5 29 0 57 15 100 12 33 19 65 15 72 -5 7 0 9 14 6 17 -5 23 -1 28 17 6
25 -6 55 -43 98 -13 16 -20 34 -16 40 4 7 6 20 5 30 -2 9 1 17 7 17 5 0 12 -8
14 -17 4 -14 5 -13 6 4 0 12 -3 25 -9 28 -5 3 -10 20 -10 37 0 17 3 28 7 25 3
-4 17 3 30 15 23 21 25 22 34 6 16 -28 48 -42 65 -27 11 9 14 8 14 -5 0 -9 -7
-19 -15 -22 -8 -4 -12 -10 -9 -15 3 -5 -1 -9 -9 -9 -8 0 -14 8 -13 18 0 11 -6
17 -19 17 -11 1 -19 6 -18 13 3 13 -9 16 -20 6 -11 -12 14 -46 29 -40 8 3 12
2 9 -3 -5 -9 32 -27 48 -23 4 1 7 -3 7 -9 0 -7 -11 -8 -30 -4 -16 3 -37 2 -47
-4 -15 -9 -13 -10 10 -7 19 3 27 1 24 -7 -2 -7 -9 -12 -14 -12 -6 0 -15 -3
-19 -7 -7 -7 15 -12 41 -9 6 0 10 -11 10 -24 0 -15 -5 -23 -12 -21 -6 3 -13
-4 -16 -16 -4 -15 -11 -18 -29 -13 -20 5 -21 5 -5 -5 10 -7 24 -9 32 -6 7 2
16 -2 19 -10 4 -10 13 -13 26 -9 11 4 20 2 20 -4 0 -6 -13 -11 -28 -11 -26 0
-28 -3 -24 -30 2 -18 0 -30 -7 -30 -6 0 -8 6 -5 14 11 28 -12 24 -28 -5 -10
-16 -13 -29 -8 -29 4 0 10 4 12 8 2 5 14 5 28 1 23 -6 23 -7 3 -8 -12 -1 -25
-6 -29 -13 -4 -6 -3 -8 4 -4 6 3 13 2 17 -4 3 -5 1 -10 -5 -10 -7 0 -10 -6 -7
-12 2 -7 10 -13 17 -13 14 0 27 -25 13 -25 -4 0 -17 -7 -27 -15 -17 -13 -17
-17 -5 -32 8 -9 9 -14 2 -10 -6 4 -14 3 -17 -2 -8 -12 77 -9 85 3 4 5 15 5 25
1 17 -8 17 -9 -4 -13 -16 -2 -22 -8 -18 -18 3 -9 1 -12 -5 -9 -5 4 -17 4 -26
1 -23 -9 3 -36 35 -36 14 0 22 -3 19 -7 -6 -6 21 -32 34 -33 3 0 11 12 17 26
7 14 9 23 5 21 -5 -3 -14 1 -21 9 -7 8 -9 14 -4 14 6 0 3 19 -5 42 -8 22 -12
47 -9 54 8 21 -14 72 -32 77 -15 4 -15 5 1 6 9 0 17 8 17 16 0 9 6 18 14 21 8
3 16 17 19 32 3 15 13 36 21 47 14 18 15 18 16 3 0 -10 -4 -18 -10 -18 -5 0
-10 -13 -10 -28 0 -15 -5 -33 -12 -40 -9 -9 -8 -12 5 -12 23 0 21 -16 -4 -33
-16 -12 -19 -19 -11 -34 5 -10 8 -31 6 -48 -3 -16 -1 -36 4 -43 12 -18 42 -4
35 16 -4 13 -3 14 5 3 13 -19 3 -51 -14 -44 -24 9 -15 -13 10 -27 31 -16 102
-8 125 14 11 12 12 16 2 16 -8 0 -7 6 5 17 13 13 19 14 22 5 8 -25 22 -11 16
16 -7 24 -6 26 9 13 9 -7 14 -17 11 -22 -3 -5 0 -9 5 -9 11 0 15 13 12 39 -2
7 2 10 8 6 14 -8 14 -3 1 31 -10 24 -9 26 11 21 15 -4 19 -2 15 9 -3 8 -1 25
3 37 5 13 11 39 12 58 2 19 7 37 12 40 10 7 -2 39 -15 39 -5 0 -6 -5 -2 -12 5
-7 3 -8 -5 -4 -7 5 -10 10 -7 13 3 3 0 15 -6 27 -11 20 -10 20 8 7 10 -8 -1 6
-25 31 -24 26 -49 44 -56 42 -7 -3 -16 -1 -20 5 -3 6 1 11 10 11 9 0 13 5 10
10 -4 6 -15 8 -25 5 -13 -4 -22 1 -30 15 -6 11 -7 20 -1 20 5 0 11 -6 14 -12
2 -7 8 -10 12 -5 10 8 -30 86 -53 105 -10 7 -11 12 -4 12 7 0 12 13 12 29 0
41 28 70 75 75 35 5 43 1 77 -35 21 -22 38 -45 38 -51 0 -9 -3 -9 -12 0 -18
18 -28 15 -38 -10 -8 -22 -9 -22 -15 7 -4 17 -15 42 -25 55 -15 20 -21 22 -33
12 -12 -10 -16 -10 -20 0 -4 9 -6 8 -6 -2 -1 -18 18 -40 33 -40 6 0 4 5 -4 10
-12 7 -12 12 -3 21 10 10 15 6 23 -16 6 -16 9 -34 6 -41 -3 -8 -1 -16 4 -19 6
-4 10 -11 10 -17 0 -6 -9 -3 -20 7 -30 27 -24 6 8 -29 23 -26 23 -28 3 -11
-24 20 -24 20 -17 0 6 -18 6 -19 -9 -4 -9 9 -18 22 -19 30 -2 8 -6 22 -10 31
-4 9 -5 21 -2 27 4 5 2 12 -3 15 -22 14 -18 -29 8 -86 18 -41 46 -80 80 -111
28 -26 51 -52 51 -56 0 -5 6 -14 14 -20 8 -7 18 -26 21 -42 4 -16 11 -29 16
-29 5 0 4 -10 -3 -21 -10 -17 -10 -23 0 -26 6 -3 12 -17 13 -31 0 -24 1 -25 9
-7 8 19 9 19 9 0 1 -12 4 -16 11 -9 10 10 -15 142 -31 159 -17 18 -9 28 9 12
25 -23 35 -21 20 3 -11 17 -10 22 0 29 10 6 11 20 4 60 -5 28 -6 51 -2 51 7 0
-6 101 -17 130 -4 11 -9 7 -18 -14 -7 -18 -14 -23 -17 -15 -2 8 1 25 9 39 7
14 13 21 13 16 0 -5 7 -3 15 4 13 11 15 7 15 -24 0 -38 16 -53 45 -42 12 4 13
10 3 33 -6 15 -18 34 -27 40 -12 11 -12 21 -2 68 10 44 10 59 0 71 -6 8 -10
17 -7 19 3 3 11 -1 17 -9 11 -13 18 -10 53 22 22 20 45 37 51 37 16 0 22 -34
8 -48 -7 -7 -8 -3 -4 12 6 25 -4 27 -28 5 -10 -9 -15 -23 -12 -32 4 -15 3 -15
-6 -2 -12 18 -29 5 -36 -28 -3 -12 -7 -31 -10 -42 -3 -11 -7 -28 -9 -38 -4
-20 28 -65 39 -54 3 4 6 2 4 -3 -1 -6 2 -19 6 -29 6 -14 2 -23 -18 -38 -22
-16 -25 -23 -17 -43 10 -26 4 -55 -14 -67 -7 -5 -7 -8 2 -8 7 0 15 7 19 16 4
12 8 13 14 3 5 -8 0 -18 -12 -27 -36 -25 -16 -55 44 -66 l38 -7 -20 20 c-27
27 -27 47 0 47 16 0 19 -5 14 -26 -4 -17 -3 -20 3 -11 13 18 25 -3 17 -29 -6
-20 3 -24 43 -23 6 1 12 -4 12 -9 0 -11 -59 -1 -76 13 -6 5 -14 6 -18 2 -4 -4
-11 -1 -16 7 -12 19 -28 3 -32 -30 -2 -19 2 -25 15 -25 10 0 23 -8 29 -18 7
-14 17 -17 35 -12 14 3 31 1 38 -5 10 -8 19 -9 32 -1 17 10 17 10 1 11 -10 0
-18 5 -18 10 0 6 13 8 31 5 20 -4 28 -2 24 5 -4 6 -1 18 6 26 6 8 8 18 4 22
-4 4 -10 2 -12 -5 -2 -7 -11 -9 -20 -6 -13 5 -11 9 8 25 20 17 21 19 4 13 -39
-15 -75 -17 -75 -6 0 6 6 11 13 11 8 0 22 9 32 20 12 13 25 18 38 14 13 -4 17
-2 13 5 -4 6 -23 11 -42 11 -24 0 -33 -4 -28 -12 5 -7 3 -8 -5 -4 -7 5 -10 10
-7 14 3 3 -2 11 -12 18 -9 7 -12 14 -6 14 7 0 15 8 19 18 5 14 4 15 -6 5 -7
-7 -17 -13 -23 -13 -5 0 1 9 13 19 20 18 21 20 5 29 -12 7 -13 11 -4 17 7 4
16 2 21 -6 4 -7 11 -10 15 -7 3 4 -1 14 -9 23 -11 11 -18 12 -23 4 -5 -8 -10
-6 -17 6 -6 12 -6 20 4 25 10 7 10 11 0 24 -8 10 -9 16 -3 16 6 0 14 -4 17
-10 8 -13 25 -13 25 1 0 5 -4 7 -10 4 -5 -3 -10 -1 -10 4 0 6 4 11 8 11 5 0
18 13 29 28 l20 28 -33 -4 c-27 -3 -34 -1 -34 12 0 10 5 14 11 10 7 -4 26 -7
42 -6 17 0 39 -4 49 -9 10 -5 18 -6 18 -1 0 12 -68 32 -86 25 -8 -3 -14 1 -14
10 0 8 7 14 16 13 9 0 19 4 21 10 2 6 -6 10 -18 10 -12 -1 -24 5 -27 13 -3 9
0 11 7 6 17 -10 63 3 55 16 -4 8 -9 7 -14 -1 -6 -9 -9 -9 -16 1 -4 7 -3 14 4
17 8 2 8 8 -2 18 -19 18 -27 18 -20 -1 4 -8 1 -15 -7 -15 -7 0 -9 3 -6 7 4 3
0 14 -8 23 -13 15 -13 20 1 49 l16 32 24 -50 c13 -28 34 -62 47 -75 29 -29 51
-81 43 -101 -3 -9 1 -26 8 -38 13 -19 13 -25 1 -41 -12 -16 -12 -23 0 -46 8
-15 12 -30 9 -32 -2 -3 2 -11 10 -17 10 -8 16 -9 21 -1 3 5 2 10 -2 10 -5 0
-9 10 -10 21 -2 20 -1 20 11 4 12 -16 13 -15 14 11 2 43 16 87 30 92 7 2 12
-6 12 -20 l1 -23 20 24 c17 20 19 34 14 80 -7 81 -7 93 4 104 16 16 31 -3 31
-41 0 -26 3 -33 11 -25 13 13 -4 75 -26 93 -16 13 -10 34 6 25 5 -3 6 1 3 9
-3 9 -10 14 -14 11 -5 -3 -14 10 -21 30 -9 23 -16 31 -21 22 -5 -8 -8 -7 -8 5
0 23 19 33 26 14 3 -9 10 -16 14 -16 4 0 0 22 -11 50 l-19 50 38 -21 c20 -12
46 -28 56 -38 18 -15 18 -15 7 7 -19 35 -4 26 29 -20 34 -46 36 -45 15 9 -12
32 -20 68 -24 116 -1 4 -9 7 -19 7 -10 0 -23 5 -29 11 -16 16 -4 49 19 49 16
0 11 10 -29 62 -42 54 -147 148 -170 151 -4 1 -17 12 -28 24 -41 46 -240 130
-334 141 -33 4 -56 13 -59 21 -3 8 0 11 7 7 6 -4 11 -2 11 3 0 14 -17 14 -25
1 -7 -11 -35 -2 -35 11 0 5 26 8 58 8 31 -1 49 -3 40 -6 -31 -8 -19 -19 32
-31 136 -32 324 -128 415 -213 26 -24 53 -47 60 -51 26 -15 88 -121 91 -156 1
-20 12 -44 24 -56 l22 -21 -13 22 c-16 27 -5 41 20 26 16 -10 18 -9 14 8 -3
10 -13 19 -23 19 -10 0 -21 7 -24 16 -9 23 -8 26 6 18 8 -5 9 -2 5 10 -4 10
-10 30 -13 44 -4 15 -16 37 -27 49 -11 13 -18 25 -16 27 7 7 22 -6 35 -29 6
-11 16 -20 21 -20 24 0 68 -67 59 -91 -3 -8 -1 -14 5 -14 6 0 9 -6 6 -13 -3
-8 -1 -20 5 -28 8 -11 9 -10 4 4 -3 9 -2 17 3 17 15 0 53 -49 46 -59 -3 -6 -1
-11 4 -11 6 0 11 -6 11 -13 0 -8 9 -22 20 -32 20 -19 28 -41 10 -30 -5 3 -10
0 -10 -8 0 -7 12 -19 26 -26 19 -8 25 -17 21 -31 -3 -11 -1 -23 4 -26 5 -3 9
-16 9 -28 0 -13 7 -29 15 -36 17 -14 21 -65 5 -55 -5 3 -10 -1 -10 -9 0 -9 6
-16 14 -16 21 0 27 -14 30 -63 2 -56 11 -67 52 -67 31 0 34 3 34 29 0 15 -11
45 -25 65 -13 20 -33 67 -42 104 -10 37 -22 70 -27 73 -5 4 -6 11 -2 17 3 6 2
13 -4 17 -6 4 -8 10 -5 15 10 16 -41 114 -88 173 -26 31 -47 61 -47 66 0 5 -3
11 -7 13 -5 2 -26 26 -47 53 -91 116 -209 219 -219 192 -3 -6 -6 -2 -6 10 -1
29 -70 70 -159 94 -37 10 -90 25 -117 33 -28 9 -114 25 -190 36 -77 11 -144
25 -149 30 -14 14 -46 10 -86 -11z m131 -60 c11 -11 17 -24 13 -27 -3 -4 -9
-1 -11 6 -3 6 -9 12 -14 12 -6 0 -7 -4 -4 -10 4 -6 -10 -10 -36 -10 -25 0 -50
-7 -61 -17 -10 -9 -18 -12 -18 -7 0 5 -32 9 -70 9 -39 0 -70 -3 -70 -7 0 -5
-9 -8 -20 -8 -11 0 -20 5 -20 11 0 5 5 7 10 4 6 -3 10 1 10 9 0 9 9 16 20 16
11 0 20 -5 20 -10 0 -6 10 -2 22 10 15 14 35 20 64 20 24 0 45 4 48 8 3 5 26
9 51 10 34 2 50 -3 66 -19z m-365 -68 c-4 -5 0 -11 6 -14 18 -6 6 -16 -31 -27
-28 -8 -31 -7 -21 5 7 8 9 15 5 15 -4 0 -2 7 5 15 13 16 45 21 36 6z m-101
-11 c-3 -5 -1 -10 5 -10 6 0 8 -4 5 -10 -3 -5 -11 -10 -16 -10 -6 0 -7 5 -4
10 14 23 -13 7 -51 -30 -43 -42 -140 -110 -156 -110 -16 0 3 21 29 31 13 5 22
13 19 18 -3 4 4 17 16 27 16 14 22 16 25 6 4 -9 11 -6 27 10 49 52 121 100
101 68z m30 -40 c-3 -5 -12 -10 -20 -10 -7 0 -15 -6 -18 -14 -4 -9 -14 -12
-26 -9 -12 3 -17 11 -14 19 3 8 13 12 22 10 9 -3 23 -1 31 4 20 13 33 13 25 0z
m493 -11 c12 1 22 -3 22 -8 0 -5 8 -8 18 -7 9 2 24 0 32 -5 8 -4 44 -19 80
-35 36 -15 68 -32 72 -38 4 -6 8 -7 8 -2 0 6 12 -2 28 -17 21 -20 35 -25 60
-22 23 3 39 -2 58 -18 25 -22 25 -23 7 -39 -10 -8 -28 -19 -40 -22 -18 -6 -23
-3 -23 10 0 14 -3 15 -12 6 -8 -8 -8 -15 3 -28 9 -12 10 -15 2 -10 -20 11 -15
-5 5 -20 23 -17 4 -49 -29 -48 -71 4 -121 13 -136 25 -11 9 -14 10 -9 2 4 -7
3 -13 -3 -13 -5 0 -12 4 -16 9 -3 6 -13 10 -23 11 -9 1 -39 3 -67 5 -27 2 -98
5 -157 6 -60 2 -108 6 -108 10 0 4 -11 6 -25 4 -14 -1 -25 2 -25 6 0 5 -7 9
-15 9 -8 0 -15 6 -15 14 0 8 -4 16 -10 18 -5 2 -7 13 -4 25 4 13 10 21 14 18
4 -2 17 7 28 20 l22 25 -23 0 c-32 -1 -52 -21 -55 -53 -3 -40 -11 -50 -27 -37
-12 10 -12 7 -2 -14 13 -27 49 -48 69 -41 18 7 42 -11 34 -24 -11 -18 -44 -13
-67 10 -17 17 -23 19 -30 8 -7 -11 -11 -10 -23 6 -15 20 -15 20 -9 -2 6 -25
-6 -30 -24 -12 -13 13 -36 3 -28 -12 4 -5 4 -9 0 -9 -3 0 -10 12 -15 26 -6 15
-16 24 -23 21 -8 -3 -14 1 -14 8 0 15 13 14 46 -4 17 -10 21 -10 16 -1 -4 7
-1 16 6 21 10 6 9 8 -6 8 -116 0 -135 2 -135 16 0 8 6 12 13 9 19 -7 81 52 74
70 -6 15 -2 15 66 0 32 -7 31 -31 -1 -26 -12 2 -22 -2 -22 -7 0 -6 7 -11 15
-11 7 0 19 -8 25 -17 9 -16 10 -15 5 5 -4 13 -2 22 4 22 20 0 11 30 -10 38
-20 8 -20 9 -2 22 10 8 15 11 11 6 -9 -11 30 -48 43 -40 6 3 8 17 4 31 -4 18
-2 23 6 17 8 -4 9 -3 5 4 -4 7 -16 12 -27 12 -10 0 -19 7 -19 15 0 8 5 15 10
15 6 0 10 -4 10 -9 0 -27 46 -19 91 16 27 22 92 32 169 27 41 -3 85 -5 98 -5z
m538 -51 c4 -6 3 -9 -2 -6 -47 21 -64 33 -64 45 0 11 8 9 30 -7 16 -11 32 -26
36 -32z m34 -29 c0 -6 -4 -7 -10 -4 -5 3 -10 11 -10 16 0 6 5 7 10 4 6 -3 10
-11 10 -16z m-31 -3 c10 -12 8 -13 -8 -9 -12 3 -21 9 -21 14 0 14 16 11 29 -5z
m51 -26 c0 -5 -2 -10 -4 -10 -3 0 -8 5 -11 10 -3 6 -1 10 4 10 6 0 11 -4 11
-10z m-1109 -33 l-24 -22 19 27 c10 14 21 24 23 22 3 -3 -6 -15 -18 -27z m-21
9 c0 -2 -7 -9 -15 -16 -13 -11 -14 -10 -9 4 5 14 24 23 24 12z m1000 -50 c0
-3 -4 -8 -10 -11 -5 -3 -10 -1 -10 4 0 6 5 11 10 11 6 0 10 -2 10 -4z m-10
-86 c0 -5 -4 -10 -10 -10 -5 0 -10 5 -10 10 0 6 5 10 10 10 6 0 10 -4 10 -10z
m-310 -40 c0 -5 -4 -10 -10 -10 -5 0 -10 5 -10 10 0 6 5 10 10 10 6 0 10 -4
10 -10z m270 -10 c0 -5 -2 -10 -4 -10 -3 0 -8 5 -11 10 -3 6 -1 10 4 10 6 0
11 -4 11 -10z m-1340 -24 c0 -3 -4 -8 -10 -11 -5 -3 -10 -1 -10 4 0 6 5 11 10
11 6 0 10 -2 10 -4z m635 -68 c-1 -12 -7 -24 -13 -26 -16 -5 -15 35 1 41 6 3
12 6 13 6 0 1 0 -9 -1 -21z m198 -16 c22 -27 28 -52 12 -52 -12 0 -65 58 -65
73 0 10 39 -5 53 -21z m-161 -34 c-7 -7 -12 -8 -12 -2 0 14 12 26 19 19 2 -3
-1 -11 -7 -17z m-32 -11 c11 -5 9 -6 -4 -4 -11 1 -21 9 -23 17 -3 10 -2 11 4
4 4 -6 15 -14 23 -17z m98 -7 c3 -7 0 -10 -7 -6 -6 4 -11 1 -12 -6 0 -10 -2
-10 -6 0 -2 6 -12 12 -21 13 -14 0 -13 2 3 9 25 11 37 8 43 -10z m372 -20 c0
-5 -7 -10 -15 -10 -8 0 -15 5 -15 10 0 6 7 10 15 10 8 0 15 -4 15 -10z m-260
-14 c0 -2 -7 -7 -16 -10 -8 -3 -12 -2 -9 4 6 10 25 14 25 6z m-820 -25 c0 -19
-23 -35 -34 -24 -7 8 12 43 24 43 6 0 10 -9 10 -19z m1275 -41 c3 -5 1 -10 -4
-10 -6 0 -11 5 -11 10 0 6 2 10 4 10 3 0 8 -4 11 -10z m-1310 -60 c3 -5 1 -10
-4 -10 -6 0 -11 5 -11 10 0 6 2 10 4 10 3 0 8 -4 11 -10z m1405 -30 c0 -5 -2
-10 -4 -10 -3 0 -8 5 -11 10 -3 6 -1 10 4 10 6 0 11 -4 11 -10z m-763 -6 c-3
-3 -12 -4 -19 -1 -8 3 -5 6 6 6 11 1 17 -2 13 -5z m-88 -45 c-12 -11 -31 -19
-43 -19 -19 1 -18 2 7 18 15 9 27 20 27 24 0 4 7 5 15 2 13 -5 12 -10 -6 -25z
m-69 1 c0 -5 -7 -7 -15 -4 -8 4 -12 10 -9 15 6 11 24 2 24 -11z m-643 -32 c-3
-8 -6 -5 -6 6 -1 11 2 17 5 13 3 -3 4 -12 1 -19z m383 -5 c0 -31 -15 -61 -26
-51 -9 10 5 78 16 78 6 0 10 -12 10 -27z m1150 7 c0 -5 -5 -10 -11 -10 -5 0
-7 5 -4 10 3 6 8 10 11 10 2 0 4 -4 4 -10z m-157 -30 c4 -4 1 -13 -8 -20 -12
-10 -19 -10 -27 -2 -9 9 -8 12 3 12 8 1 3 7 -11 15 l-25 15 30 -6 c17 -4 34
-10 38 -14z m-1286 -6 c-3 -3 -12 -4 -19 -1 -8 3 -5 6 6 6 11 1 17 -2 13 -5z
m688 -42 c-3 -3 -11 0 -18 7 -9 10 -8 11 6 5 10 -3 15 -9 12 -12z m-308 -24
c-3 -8 -6 -5 -6 6 -1 11 2 17 5 13 3 -3 4 -12 1 -19z m-480 6 c-3 -3 -12 -4
-19 -1 -8 3 -5 6 6 6 11 1 17 -2 13 -5z m532 -45 c-19 -11 -24 -3 -8 14 8 9
16 11 18 5 2 -6 -3 -14 -10 -19z m233 11 c6 0 9 -3 5 -6 -10 -10 -97 -14 -97
-5 0 5 8 7 19 4 10 -3 22 0 26 7 4 6 14 9 22 6 8 -3 20 -6 25 -6z m168 -53 c0
-5 -4 -5 -10 -2 -5 3 -10 14 -10 23 0 15 2 15 10 2 5 -8 10 -19 10 -23z m-414
-17 c1 -19 -1 -29 -3 -22 -3 6 -13 12 -23 12 -25 0 -34 16 -19 33 24 25 44 15
45 -23z m174 20 c0 -5 -4 -10 -10 -10 -5 0 -10 5 -10 10 0 6 5 10 10 10 6 0
10 -4 10 -10z m30 1 c0 -6 -4 -13 -10 -16 -5 -3 -10 1 -10 9 0 9 5 16 10 16 6
0 10 -4 10 -9z m410 -25 c0 -2 -9 -2 -20 1 -11 3 -20 9 -20 15 0 5 9 4 20 -2
11 -6 20 -12 20 -14z m-340 -16 c0 -5 -2 -10 -4 -10 -3 0 -8 5 -11 10 -3 6 -1
10 4 10 6 0 11 -4 11 -10z m250 0 c0 -5 -4 -10 -10 -10 -5 0 -10 5 -10 10 0 6
5 10 10 10 6 0 10 -4 10 -10z m-634 -25 c-11 -8 -24 -15 -30 -15 -5 0 -1 7 10
15 10 8 24 14 29 14 6 0 1 -6 -9 -14z m352 3 c-2 -6 -10 -14 -16 -16 -7 -2
-10 2 -6 12 7 18 28 22 22 4z m7 -37 c-3 -6 -11 -11 -17 -11 -6 0 -6 6 2 15
14 17 26 13 15 -4z m-365 -9 c0 -13 -12 -22 -22 -16 -10 6 -1 24 13 24 5 0 9
-4 9 -8z m130 -12 c-18 -12 -63 -13 -56 -2 2 4 19 9 38 10 25 2 29 0 18 -8z
m190 -4 c0 -3 -4 -8 -10 -11 -5 -3 -10 -1 -10 4 0 6 5 11 10 11 6 0 10 -2 10
-4z m292 -21 c-2 -14 -6 -25 -8 -25 -2 0 -4 11 -4 25 0 14 4 25 9 25 4 0 6
-11 3 -25z m123 -15 c3 -5 1 -10 -4 -10 -6 0 -11 5 -11 10 0 6 2 10 4 10 3 0
8 -4 11 -10z m-95 -10 c0 -5 -2 -10 -4 -10 -3 0 -8 5 -11 10 -3 6 -1 10 4 10
6 0 11 -4 11 -10z m-100 -26 c0 -8 5 -12 10 -9 6 3 10 4 10 1 0 -3 -4 -7 -9
-11 -12 -7 -43 24 -35 36 8 13 24 1 24 -17z m370 11 c7 -8 8 -15 2 -15 -5 0
-15 7 -22 15 -7 8 -8 15 -2 15 5 0 15 -7 22 -15z m-260 -9 c0 -3 -4 -8 -10
-11 -5 -3 -10 -1 -10 4 0 6 5 11 10 11 6 0 10 -2 10 -4z m340 -5 c0 -11 -31
-24 -38 -16 -3 3 0 5 7 5 7 0 9 5 6 10 -3 6 1 10 9 10 9 0 16 -4 16 -9z m40 5
c0 -11 -19 -15 -25 -6 -3 5 1 10 9 10 9 0 16 -2 16 -4z m-690 -36 c0 -5 -10
-10 -22 -9 -22 0 -22 1 -3 9 11 5 21 9 23 9 1 1 2 -3 2 -9z m190 -10 c0 -5 -2
-10 -4 -10 -3 0 -8 5 -11 10 -3 6 -1 10 4 10 6 0 11 -4 11 -10z m-65 -11 c11
-16 1 -19 -13 -3 -7 8 -8 14 -3 14 5 0 13 -5 16 -11z m201 -8 c-4 -5 -1 -12 4
-14 6 -3 5 -4 -2 -3 -15 3 -23 26 -8 26 6 0 9 -4 6 -9z m-436 -21 c0 -5 -5
-10 -11 -10 -5 0 -7 5 -4 10 3 6 8 10 11 10 2 0 4 -4 4 -10z m150 -4 c0 -2 -7
-7 -16 -10 -8 -3 -12 -2 -9 4 6 10 25 14 25 6z m223 -51 c-3 -8 0 -15 6 -15 6
0 11 7 11 15 0 8 7 15 15 15 25 0 1 -43 -28 -51 -27 -7 -27 -7 -18 54 0 5 5 6
11 2 5 -3 7 -12 3 -20z m-258 -65 c-3 -5 -12 -7 -20 -3 -21 7 -19 13 6 13 11
0 18 -4 14 -10z m243 -15 l27 -26 -32 12 c-18 6 -33 17 -33 25 0 20 7 18 38
-11z m-443 -15 c-10 -11 -20 -18 -23 -16 -5 6 21 35 32 36 5 0 1 -9 -9 -20z
m195 -21 c0 -5 -4 -7 -10 -4 -5 3 -10 2 -10 -3 0 -5 -9 -12 -20 -15 -13 -3
-20 0 -20 8 0 13 17 21 48 24 6 0 12 -4 12 -10z m195 -49 c3 -6 -1 -7 -9 -4
-18 7 -21 14 -7 14 6 0 13 -4 16 -10z m-57 -28 c2 -7 -2 -10 -12 -6 -9 3 -16
11 -16 16 0 13 23 5 28 -10z"/>
<path d="M6330 7106 c0 -9 39 -13 51 -5 10 6 4 9 -18 9 -18 0 -33 -2 -33 -4z"/>
<path d="M5815 6930 c-3 -5 -2 -10 4 -10 5 0 13 5 16 10 3 6 2 10 -4 10 -5 0
-13 -4 -16 -10z"/>
<path d="M6200 6794 c0 -3 9 -14 19 -26 l20 -21 -2 21 c0 11 -9 23 -19 25 -10
3 -18 3 -18 1z"/>
<path d="M6250 6785 c0 -5 5 -17 10 -25 5 -8 10 -10 10 -5 0 6 -5 17 -10 25
-5 8 -10 11 -10 5z"/>
<path d="M5750 6720 c0 -5 5 -10 11 -10 5 0 7 5 4 10 -3 6 -8 10 -11 10 -2 0
-4 -4 -4 -10z"/>
<path d="M5870 6620 c0 -5 7 -7 15 -4 8 4 15 8 15 10 0 2 -7 4 -15 4 -8 0 -15
-4 -15 -10z"/>
<path d="M7250 6621 c0 -7 -6 -19 -14 -27 -8 -7 -12 -23 -9 -35 5 -16 8 -18
15 -7 7 10 11 10 15 1 9 -24 24 -13 19 15 -2 15 -5 28 -6 30 -2 1 -3 6 -4 11
-2 15 -16 25 -16 12z"/>
<path d="M5911 6454 c0 -11 3 -14 6 -6 3 7 2 16 -1 19 -3 4 -6 -2 -5 -13z"/>
<path d="M7329 6443 c-13 -16 -12 -17 4 -4 9 7 17 15 17 17 0 8 -8 3 -21 -13z"/>
<path d="M7345 6410 c3 -5 8 -10 11 -10 2 0 4 5 4 10 0 6 -5 10 -11 10 -5 0
-7 -4 -4 -10z"/>
<path d="M6837 6314 c-3 -5 1 -15 9 -22 16 -14 18 -5 5 17 -5 7 -11 9 -14 5z"/>
<path d="M7411 6254 c0 -11 3 -14 6 -6 3 7 2 16 -1 19 -3 4 -6 -2 -5 -13z"/>
<path d="M6440 6160 c0 -5 5 -10 11 -10 5 0 7 5 4 10 -3 6 -8 10 -11 10 -2 0
-4 -4 -4 -10z"/>
<path d="M7476 6125 c-3 -8 -1 -15 4 -15 6 0 10 7 10 15 0 8 -2 15 -4 15 -2 0
-6 -7 -10 -15z"/>
<path d="M6797 6106 c15 -13 31 -22 36 -19 9 6 -36 43 -53 43 -6 0 1 -11 17
-24z"/>
<path d="M6864 6098 c-4 -7 -4 -10 1 -6 4 4 15 2 24 -5 14 -11 14 -10 2 6 -16
20 -18 21 -27 5z"/>
<path d="M7420 6094 c0 -8 5 -12 10 -9 6 3 10 10 10 16 0 5 -4 9 -10 9 -5 0
-10 -7 -10 -16z"/>
<path d="M6860 6070 c0 -7 12 -34 27 -61 19 -36 29 -46 36 -37 6 9 7 6 4 -10
-5 -23 31 -112 46 -112 4 0 17 -9 29 -19 19 -19 54 -18 42 0 -3 5 -11 6 -17 3
-7 -4 -9 -4 -5 0 3 4 -7 32 -23 63 -16 30 -29 65 -29 78 0 24 -45 62 -55 46
-3 -5 1 -12 7 -14 8 -3 5 -6 -5 -6 -12 -1 -18 5 -16 17 3 30 -1 37 -11 22 -8
-12 -10 -10 -8 9 2 13 -3 26 -9 28 -7 3 -13 -1 -13 -7z"/>
<path d="M7466 6067 c-10 -8 -28 -12 -40 -10 -32 7 -44 -14 -51 -91 -3 -38 -8
-72 -10 -76 -2 -4 -6 -30 -9 -58 -6 -59 -49 -134 -72 -125 -16 6 -19 23 -4 23
6 0 10 6 10 13 -1 6 -12 -1 -25 -17 -13 -17 -21 -34 -18 -39 3 -5 9 -3 14 4 6
9 9 10 9 2 0 -6 -7 -18 -15 -27 -8 -8 -15 -19 -15 -24 0 -6 -7 -13 -16 -16
-10 -4 -13 -2 -9 7 14 26 -35 -40 -52 -71 -10 -17 -22 -31 -28 -29 -18 6 -47
-30 -41 -50 3 -11 0 -28 -8 -38 -17 -23 -3 -60 20 -51 8 3 14 1 14 -4 0 -6 10
-10 23 -10 12 0 29 -4 37 -10 12 -8 12 -10 -2 -15 -9 -4 -19 -13 -22 -21 -3
-9 -1 -12 4 -9 6 3 10 -1 10 -9 0 -9 -6 -16 -12 -16 -10 0 -9 -3 1 -9 7 -5 22
-6 32 -4 15 4 18 2 12 -13 -3 -11 -11 -23 -17 -27 -8 -6 -7 -10 2 -14 10 -4
10 -8 1 -19 -9 -11 -9 -18 -1 -26 9 -9 12 -8 12 2 0 13 2 13 10 0 7 -12 12
-12 29 4 11 10 17 24 14 32 -3 8 1 14 11 14 9 0 16 6 16 14 0 8 12 28 26 45
14 17 24 38 21 46 -4 9 -1 12 9 8 7 -3 15 -1 15 3 1 5 3 18 5 29 2 11 5 30 7
42 2 13 6 26 10 29 4 4 7 17 7 28 0 12 13 59 30 105 16 46 27 88 24 92 -3 5 0
9 6 9 8 0 7 6 -1 21 -9 17 -8 20 2 17 14 -5 25 11 52 68 25 53 29 93 22 190
-7 97 -13 107 -49 81z m-21 -307 c3 -5 1 -10 -4 -10 -6 0 -11 5 -11 10 0 6 2
10 4 10 3 0 8 -4 11 -10z m-195 -273 c0 -5 -4 -5 -10 -2 -5 3 -10 1 -10 -4 0
-6 -4 -11 -8 -11 -4 0 -9 17 -9 37 l-1 37 19 -24 c10 -14 19 -29 19 -33z m60
-7 c0 -5 -4 -10 -10 -10 -5 0 -10 5 -10 10 0 6 5 10 10 10 6 0 10 -4 10 -10z
m-120 -80 c14 -11 20 -20 14 -20 -19 0 -64 26 -57 33 10 10 16 8 43 -13z m150
-20 c0 -5 -4 -10 -10 -10 -5 0 -10 5 -10 10 0 6 5 10 10 10 6 0 10 -4 10 -10z
m-45 -30 c-3 -5 -2 -10 4 -10 7 0 7 -8 -1 -25 -14 -31 -20 -31 -34 -1 -10 21
-8 26 10 34 27 14 28 14 21 2z m-55 -50 c0 -5 -5 -10 -11 -10 -5 0 -7 5 -4 10
3 6 8 10 11 10 2 0 4 -4 4 -10z m-4 -50 c8 -38 7 -45 -8 -45 -7 0 -13 16 -13
38 -2 44 13 49 21 7z"/>
<path d="M6600 6063 c0 -5 5 -15 10 -23 7 -12 9 -10 7 8 -1 19 -17 33 -17 15z"/>
<path d="M5548 6030 c-3 -19 -2 -36 3 -38 13 -5 11 -19 -6 -36 -14 -14 -14
-19 7 -56 13 -22 27 -40 32 -40 5 0 3 7 -4 15 -9 10 -9 15 -1 15 6 0 11 7 11
15 0 8 -5 15 -11 15 -5 0 -7 5 -4 10 3 6 1 10 -5 10 -7 0 -10 9 -7 23 3 12 2
40 -2 62 l-7 40 -6 -35z"/>
<path d="M7539 6018 c-2 -24 1 -66 8 -93 12 -55 15 -43 13 55 -2 76 -16 102
-21 38z"/>
<path d="M7082 6021 c-11 -6 -10 -10 0 -19 11 -8 17 -6 26 9 10 15 10 19 0 19
-7 0 -19 -4 -26 -9z"/>
<path d="M7351 6014 c0 -11 3 -14 6 -6 3 7 2 16 -1 19 -3 4 -6 -2 -5 -13z"/>
<path d="M6830 6005 c0 -14 38 -46 44 -37 3 5 -5 17 -19 26 -14 9 -25 14 -25
11z"/>
<path d="M5365 5990 c-3 -5 -1 -10 4 -10 6 0 11 5 11 10 0 6 -2 10 -4 10 -3 0
-8 -4 -11 -10z"/>
<path d="M7063 5992 c-8 -5 -9 -13 -3 -22 6 -8 10 -25 10 -38 0 -36 23 -21 25
16 2 35 -14 55 -32 44z"/>
<path d="M5340 5972 c0 -12 19 -26 26 -19 2 2 -2 10 -11 17 -9 8 -15 8 -15 2z"/>
<path d="M7035 5950 c3 -5 8 -10 11 -10 2 0 4 5 4 10 0 6 -5 10 -11 10 -5 0
-7 -4 -4 -10z"/>
<path d="M6830 5941 c-23 -7 -22 -8 13 -12 26 -4 37 -1 37 8 0 14 -11 15 -50
4z"/>
<path d="M5286 5913 c-6 -14 -5 -15 5 -6 7 7 10 15 7 18 -3 3 -9 -2 -12 -12z"/>
<path d="M6000 5887 c0 -32 28 -57 41 -36 12 20 11 22 -16 42 -25 18 -25 18
-25 -6z m24 -23 c3 -8 2 -12 -4 -9 -6 3 -10 10 -10 16 0 14 7 11 14 -7z"/>
<path d="M6890 5900 c0 -5 5 -10 11 -10 5 0 7 5 4 10 -3 6 -8 10 -11 10 -2 0
-4 -4 -4 -10z"/>
<path d="M5590 5840 c0 -6 18 -30 40 -52 22 -23 40 -46 40 -51 0 -4 4 -5 10
-2 6 4 5 16 -5 34 -8 16 -11 31 -8 35 4 3 1 6 -5 6 -7 0 -12 -6 -12 -12 0 -7
-14 2 -30 20 -17 18 -30 28 -30 22z"/>
<path d="M7546 5835 c-3 -9 -6 -22 -5 -28 0 -7 5 -1 10 12 5 13 8 26 5 28 -2
2 -6 -3 -10 -12z"/>
<path d="M5313 5805 c0 -22 2 -30 4 -17 2 12 2 30 0 40 -3 9 -5 -1 -4 -23z"/>
<path d="M6605 5820 c-3 -5 -1 -10 4 -10 6 0 11 5 11 10 0 6 -2 10 -4 10 -3 0
-8 -4 -11 -10z"/>
<path d="M6660 5816 c0 -8 7 -17 16 -20 10 -4 14 -14 11 -25 -3 -14 -1 -18 9
-14 8 3 14 1 14 -4 0 -5 17 -9 38 -9 36 -1 36 -1 10 9 -16 6 -28 15 -28 19 0
5 -11 13 -25 18 -14 5 -25 16 -25 25 0 8 -4 15 -10 15 -5 0 -10 -6 -10 -14z"/>
<path d="M6866 5819 c7 -12 41 -17 55 -8 8 5 10 9 4 10 -46 4 -63 4 -59 -2z"/>
<path d="M6834 5805 c26 -20 42 -19 22 0 -8 8 -21 15 -28 15 -8 -1 -6 -6 6
-15z"/>
<path d="M6743 5799 c9 -6 15 -14 13 -18 -3 -4 1 -8 9 -8 8 0 15 2 15 5 0 8
-34 31 -45 31 -5 0 -2 -4 8 -10z"/>
<path d="M6818 5763 c7 -3 16 -2 19 1 4 3 -2 6 -13 5 -11 0 -14 -3 -6 -6z"/>
<path d="M7180 5766 c0 -2 7 -7 16 -10 8 -3 12 -2 9 4 -6 10 -25 14 -25 6z"/>
<path d="M6858 5753 c7 -3 16 -2 19 1 4 3 -2 6 -13 5 -11 0 -14 -3 -6 -6z"/>
<path d="M6798 5743 c7 -3 16 -2 19 1 4 3 -2 6 -13 5 -11 0 -14 -3 -6 -6z"/>
<path d="M5317 5725 c-6 -15 10 -32 20 -21 4 3 1 6 -5 6 -6 0 -9 7 -6 15 4 8
4 15 1 15 -3 0 -7 -7 -10 -15z"/>
<path d="M6850 5730 c8 -5 20 -10 25 -10 6 0 3 5 -5 10 -8 5 -19 10 -25 10 -5
0 -3 -5 5 -10z"/>
<path d="M6705 5720 c-3 -5 1 -10 9 -10 9 0 16 5 16 10 0 6 -4 10 -9 10 -6 0
-13 -4 -16 -10z"/>
<path d="M6750 5720 c0 -5 5 -10 11 -10 5 0 7 5 4 10 -3 6 -8 10 -11 10 -2 0
-4 -4 -4 -10z"/>
<path d="M5660 5700 c0 -11 5 -20 10 -20 6 0 10 -4 10 -10 0 -13 85 -138 118
-172 14 -16 30 -28 36 -28 5 0 17 -7 26 -15 15 -13 19 -13 38 8 l22 23 -29 55
c-31 55 -80 95 -107 85 -8 -3 -17 1 -21 10 -3 8 -12 13 -20 10 -8 -3 -13 0
-11 7 3 14 -23 57 -34 57 -5 0 -8 -7 -8 -16 0 -8 -4 -13 -10 -9 -5 3 -7 12 -3
20 3 8 0 15 -6 15 -6 0 -11 -9 -11 -20z"/>
<path d="M6843 5709 c9 -5 17 -17 17 -24 0 -8 5 -15 10 -15 6 0 10 4 10 8 0
12 -34 42 -46 42 -5 0 -1 -5 9 -11z"/>
<path d="M6700 5690 c0 -15 21 -23 32 -12 6 6 2 11 -11 15 -12 3 -21 1 -21 -3z"/>
<path d="M6755 5690 c-8 -12 2 -30 17 -30 7 0 6 5 -1 14 -10 12 -8 15 11 19
22 4 22 4 1 6 -12 0 -25 -3 -28 -9z"/>
<path d="M6570 5671 c0 -10 -3 -27 -7 -37 -4 -10 -2 -15 4 -11 6 4 7 -14 1
-51 -4 -31 -4 -68 1 -82 5 -14 14 -51 21 -82 6 -32 15 -58 20 -58 5 0 15 -3
24 -6 12 -4 16 0 16 15 0 12 -5 21 -11 21 -5 0 -8 4 -4 9 7 13 -14 147 -31
194 -8 20 -14 51 -14 67 0 16 -4 32 -10 35 -5 3 -10 -3 -10 -14z m40 -188 c0
-32 -5 -28 -14 10 -4 19 -3 26 4 22 5 -3 10 -18 10 -32z m15 -71 c-3 -3 -11 0
-18 7 -9 10 -8 11 6 5 10 -3 15 -9 12 -12z"/>
<path d="M6758 5643 c6 -2 18 -2 25 0 6 3 1 5 -13 5 -14 0 -19 -2 -12 -5z"/>
<path d="M7495 5640 c-3 -5 -1 -10 4 -10 6 0 11 5 11 10 0 6 -2 10 -4 10 -3 0
-8 -4 -11 -10z"/>
<path d="M7486 5608 c-11 -36 -13 -58 -6 -58 11 0 16 8 24 43 6 27 -11 40 -18
15z"/>
<path d="M7150 5588 c-12 -22 -12 -22 6 -6 10 10 15 20 12 24 -4 3 -12 -5 -18
-18z"/>
<path d="M6803 5593 c-15 -5 -17 -23 -4 -23 5 0 11 7 15 15 3 8 4 15 3 14 -1
0 -8 -3 -14 -6z"/>
<path d="M6720 5580 c0 -5 5 -10 10 -10 6 0 10 5 10 10 0 6 -4 10 -10 10 -5 0
-10 -4 -10 -10z"/>
<path d="M6720 5546 c0 -2 7 -6 15 -10 8 -3 15 -1 15 4 0 6 -7 10 -15 10 -8 0
-15 -2 -15 -4z"/>
<path d="M6040 5530 c8 -5 20 -10 25 -10 6 0 3 5 -5 10 -8 5 -19 10 -25 10 -5
0 -3 -5 5 -10z"/>
<path d="M7464 5518 c3 -10 1 -20 -3 -23 -9 -5 -22 -45 -15 -45 2 0 10 13 18
28 10 20 12 32 4 43 -8 11 -9 11 -4 -3z"/>
<path d="M6474 5505 c-19 -14 -19 -14 1 -15 15 0 17 -2 6 -9 -7 -5 -11 -13 -8
-18 4 -6 13 -50 21 -99 9 -49 18 -100 22 -113 4 -15 3 -22 -2 -18 -6 3 -10
-16 -9 -46 0 -34 4 -52 12 -52 7 0 20 -10 28 -22 14 -19 14 -23 2 -23 -8 0
-22 11 -31 25 -9 14 -21 25 -27 25 -8 0 -7 -5 1 -15 8 -10 9 -19 3 -27 -11
-15 -13 -48 -3 -48 9 0 30 -47 30 -65 0 -8 -5 -15 -10 -15 -6 0 -10 6 -8 13 1
6 -6 24 -16 39 -10 16 -14 33 -10 40 6 10 3 9 -9 -1 -15 -12 -17 -11 -17 13 0
17 4 25 11 20 7 -4 10 4 9 22 -1 16 -1 31 0 34 7 16 6 100 -1 111 -6 10 -9 5
-9 -15 0 -28 -1 -29 -20 -11 -19 17 -19 18 2 35 15 11 18 19 10 24 -7 4 -12 4
-12 1 0 -3 -6 0 -13 7 -8 7 -12 21 -9 32 3 13 1 17 -6 12 -8 -5 -10 -2 -6 8 3
9 -1 22 -9 30 -13 14 -16 10 -21 -32 -8 -70 -9 -72 -17 -72 -3 0 -9 13 -11 29
-3 17 0 29 6 28 6 -1 9 12 7 31 -2 22 4 41 16 55 17 21 17 21 -8 0 -14 -13
-30 -23 -35 -23 -5 0 -15 -9 -21 -20 -10 -15 -10 -22 2 -34 19 -19 19 -30 -1
-47 -13 -11 -15 -9 -10 12 8 32 -8 59 -26 41 -6 -6 -22 -12 -35 -12 -13 0 -26
-6 -29 -14 -3 -8 -16 -17 -30 -20 -13 -4 -24 -11 -24 -17 0 -6 -9 -8 -20 -4
-15 5 -23 0 -32 -22 -19 -42 -49 -64 -68 -50 -13 10 -13 10 -2 -5 11 -14 10
-17 -3 -20 -13 -2 -12 -6 5 -21 21 -18 22 -18 15 2 -5 16 -2 21 10 21 13 0 16
-6 11 -26 -6 -24 -6 -25 9 -10 18 18 30 21 20 6 -3 -5 6 -17 20 -26 14 -9 25
-23 25 -30 0 -8 7 -17 15 -20 8 -4 15 -13 15 -22 0 -13 3 -12 15 4 14 18 14
18 15 -4 0 -22 25 -71 44 -83 4 -4 10 -18 11 -32 3 -28 24 -70 25 -49 0 17 20
15 20 -3 0 -8 4 -15 8 -15 5 0 14 -12 20 -26 7 -14 17 -22 22 -19 6 4 9 3 8
-2 -3 -11 52 -103 63 -103 4 0 6 8 2 18 -5 14 -3 13 10 -3 9 -12 13 -31 10
-46 -3 -14 2 -39 10 -55 8 -16 18 -52 22 -79 4 -28 11 -58 14 -68 6 -17 8 -17
26 3 17 18 20 39 22 121 1 55 5 104 8 108 3 5 8 37 12 71 5 56 4 61 -12 58
-23 -4 -30 16 -12 33 31 31 28 346 -4 504 -6 28 -11 64 -12 80 -2 17 -6 28
-11 27 -5 -2 -12 1 -15 7 -5 8 -13 6 -27 -4z m-134 -135 c0 -5 -5 -10 -11 -10
-5 0 -7 5 -4 10 3 6 8 10 11 10 2 0 4 -4 4 -10z m-85 -89 c3 -5 2 -12 -3 -15
-5 -3 -9 1 -9 9 0 17 3 19 12 6z m85 -6 c0 -8 -4 -15 -10 -15 -5 0 -7 7 -4 15
4 8 8 15 10 15 2 0 4 -7 4 -15z m-140 -5 c0 -11 -50 -34 -57 -26 -3 3 30 24
55 35 1 1 2 -4 2 -9z m-35 -71 c10 -15 -4 -24 -17 -11 -8 8 -15 9 -25 1 -13
-12 -19 2 -6 14 10 11 41 8 48 -4z m290 -169 c3 -5 -1 -10 -9 -10 -9 0 -16 5
-16 10 0 6 4 10 9 10 6 0 13 -4 16 -10z m62 -179 c-1 -68 -4 -88 -13 -80 -14
12 -24 67 -12 71 4 2 8 26 9 55 3 89 17 48 16 -46z"/>
<path d="M6760 5491 c0 -13 39 -45 47 -38 3 4 1 7 -5 7 -7 0 -12 6 -12 14 0 8
-7 16 -15 20 -8 3 -15 2 -15 -3z"/>
<path d="M6108 5463 c7 -3 16 -2 19 1 4 3 -2 6 -13 5 -11 0 -14 -3 -6 -6z"/>
<path d="M6230 5464 c0 -2 9 -8 20 -14 11 -6 20 -7 20 -2 0 6 -9 12 -20 15
-11 3 -20 3 -20 1z"/>
<path d="M6406 5422 c-4 -13 -5 -26 -2 -29 10 -11 18 4 14 29 l-4 23 -8 -23z"/>
<path d="M6797 5411 c29 -27 30 -31 17 -48 -14 -17 -15 -16 -9 7 4 21 4 22 -4
5 -5 -11 -12 -29 -15 -39 -5 -15 -9 -17 -18 -8 -7 7 -19 12 -27 12 -13 -1 -12
-4 3 -15 12 -9 15 -15 7 -15 -9 0 -11 -6 -6 -17 4 -10 13 -56 21 -102 7 -47
18 -89 24 -95 5 -5 10 -20 10 -33 0 -13 5 -23 10 -23 6 0 10 -9 10 -20 0 -11
5 -20 10 -20 6 0 10 -6 10 -13 0 -8 15 -22 33 -32 18 -9 40 -30 49 -45 9 -16
26 -33 37 -39 24 -13 28 0 6 19 -17 14 -20 50 -5 50 6 0 10 -10 10 -21 0 -20
1 -21 25 -5 26 17 33 10 13 -14 -11 -12 -10 -12 5 0 10 7 16 19 13 27 -3 7 3
21 13 30 11 9 17 21 15 28 -3 7 6 36 20 65 14 29 23 57 20 61 -3 5 -1 9 5 9 5
0 13 9 16 20 5 14 0 26 -16 39 -23 18 -34 51 -18 51 5 0 7 11 3 24 -3 13 -1
27 5 31 16 9 -23 56 -60 72 -17 7 -28 17 -25 22 7 11 -17 21 -50 21 -34 0 -34
-42 1 -58 14 -6 25 -19 25 -27 0 -9 -4 -13 -10 -10 -5 3 -10 1 -10 -4 0 -6 -4
-11 -10 -11 -5 0 -9 3 -8 8 4 13 -22 52 -35 52 -7 0 -18 4 -26 9 -12 8 -13 12
-1 26 11 13 15 13 22 3 7 -10 9 -10 5 2 -2 9 -18 16 -38 18 -18 2 -36 7 -39
11 -3 4 -18 11 -35 15 l-30 6 32 -29z m93 -83 c0 -12 -18 -18 -34 -12 -24 9
-19 19 9 19 14 0 25 -3 25 -7z m155 2 c3 -5 1 -10 -4 -10 -6 0 -11 5 -11 10 0
6 2 10 4 10 3 0 8 -4 11 -10z m-112 -16 c3 -4 2 -15 -4 -26 -12 -22 -2 -40 10
-19 7 11 13 11 32 0 l24 -12 -29 -8 c-52 -14 -115 11 -70 28 8 3 13 11 10 18
-7 20 12 33 27 19z m144 -10 c-3 -3 -12 -4 -19 -1 -8 3 -5 6 6 6 11 1 17 -2
13 -5z m-53 -35 c-2 -4 4 -10 13 -12 14 -4 14 -5 2 -6 -8 0 -23 5 -33 12 -16
12 -16 13 3 13 11 0 18 -3 15 -7z m-202 -21 c-7 -7 -12 -8 -12 -2 0 14 12 26
19 19 2 -3 -1 -11 -7 -17z m171 -23 c4 -8 1 -17 -5 -21 -7 -4 -8 -3 -4 4 4 7
2 12 -4 12 -6 0 -8 5 -5 10 8 14 12 13 18 -5z m66 2 c-2 -1 -11 -8 -20 -15
-13 -9 -16 -9 -16 3 0 8 9 15 20 15 11 0 18 -1 16 -3z"/>
<path d="M5441 5394 c0 -11 3 -14 6 -6 3 7 2 16 -1 19 -3 4 -6 -2 -5 -13z"/>
<path d="M6610 5331 c0 -5 5 -13 10 -16 6 -3 10 -2 10 4 0 5 -4 13 -10 16 -5
3 -10 2 -10 -4z"/>
<path d="M6655 5250 c0 -44 4 -80 9 -80 4 0 5 7 2 16 -4 10 -1 14 6 11 7 -2
12 -12 12 -21 -1 -9 2 -16 7 -16 13 0 11 12 -6 54 -8 20 -11 36 -6 36 5 0 12
-6 15 -12 3 -7 3 5 -1 27 -5 36 -23 74 -23 50 0 -6 -4 -5 -8 2 -4 7 -7 -24 -7
-67z"/>
<path d="M6003 5283 c-35 -5 -44 -20 -17 -30 9 -3 25 3 37 16 12 11 19 20 17
19 -3 0 -20 -3 -37 -5z"/>
<path d="M6627 5264 c-4 -4 -7 -17 -7 -28 1 -19 1 -20 11 -3 11 19 8 43 -4 31z"/>
<path d="M7391 5244 c0 -11 3 -14 6 -6 3 7 2 16 -1 19 -3 4 -6 -2 -5 -13z"/>
<path d="M5906 5215 c4 -8 7 -15 9 -15 2 0 5 7 9 15 3 9 0 15 -9 15 -9 0 -12
-6 -9 -15z"/>
<path d="M7385 5184 c-9 -15 -12 -23 -6 -20 11 7 35 46 28 46 -3 0 -12 -12
-22 -26z"/>
<path d="M5906 5173 c-6 -14 -5 -15 5 -6 7 7 10 15 7 18 -3 3 -9 -2 -12 -12z"/>
<path d="M6026 5147 c3 -10 9 -15 12 -12 3 3 0 11 -7 18 -10 9 -11 8 -5 -6z"/>
<path d="M6660 5143 c0 -13 5 -23 10 -23 13 0 13 11 0 30 -8 12 -10 11 -10 -7z"/>
<path d="M6703 5143 c-7 -3 -13 -16 -13 -29 0 -13 -5 -24 -11 -24 -14 0 -3
-118 13 -137 7 -9 5 -26 -5 -57 -14 -41 -14 -44 1 -39 14 5 14 3 -2 -15 -18
-21 -18 -23 -3 -40 10 -10 17 -22 17 -26 0 -4 6 -14 14 -22 13 -12 17 -11 29
6 12 17 16 18 20 6 4 -9 1 -21 -6 -28 -7 -8 -12 -39 -12 -76 0 -35 -3 -66 -7
-69 -5 -2 -8 -9 -8 -15 0 -7 4 -7 14 1 11 9 12 6 8 -14 -3 -20 -7 -23 -18 -14
-9 8 -14 8 -14 1 0 -6 4 -13 9 -17 5 -3 8 -20 6 -37 -3 -17 0 -38 6 -45 9 -10
8 -13 -4 -13 -8 0 -18 -7 -21 -16 -10 -26 -7 -29 8 -9 13 18 14 18 21 -4 6
-21 8 -22 26 -5 10 9 19 22 19 29 0 7 9 20 20 30 19 17 29 41 12 31 -4 -2 -8
16 -9 40 0 24 3 44 8 44 5 0 7 11 3 25 -3 14 -2 25 4 25 10 0 62 74 62 87 -1
5 -9 -2 -19 -14 -10 -12 -22 -19 -26 -15 -5 4 -5 2 -1 -5 3 -6 2 -14 -4 -18
-5 -3 -10 2 -10 11 0 10 -3 14 -7 10 -4 -4 -15 8 -24 25 -14 28 -15 37 -4 63
20 47 21 99 4 124 -18 25 -29 19 -29 -14 0 -13 -5 -26 -10 -29 -7 -4 -10 12
-9 46 2 35 -2 56 -12 63 -15 12 -19 73 -6 93 8 13 -1 81 -12 87 -3 2 -12 1
-18 -1z m17 -147 c0 -3 -4 -8 -10 -11 -5 -3 -10 -1 -10 4 0 6 5 11 10 11 6 0
10 -2 10 -4z m50 -376 c0 -5 -4 -10 -10 -10 -5 0 -10 5 -10 10 0 6 5 10 10 10
6 0 10 -4 10 -10z m18 -115 c-2 -15 -6 -21 -11 -16 -6 6 -7 17 -4 25 9 24 17
19 15 -9z"/>
<path d="M6636 5068 c-13 -110 -20 -268 -12 -268 5 0 3 -6 -3 -14 -12 -15 -11
-127 1 -120 18 11 28 91 25 184 -2 56 0 103 5 106 11 7 10 154 -1 154 -6 0
-12 -19 -15 -42z"/>
<path d="M7200 5085 c0 -9 6 -12 15 -9 8 4 15 10 15 15 0 5 -7 9 -15 9 -8 0
-15 -7 -15 -15z"/>
<path d="M7341 5093 c-1 -6 -4 -20 -7 -30 -5 -17 -5 -17 6 0 6 10 9 23 6 30
-3 9 -5 9 -5 0z"/>
<path d="M7117 5001 c-4 -17 -3 -21 5 -13 5 5 8 16 6 23 -3 8 -7 3 -11 -10z"/>
<path d="M7150 4969 c0 -5 5 -7 10 -4 6 3 10 8 10 11 0 2 -4 4 -10 4 -5 0 -10
-5 -10 -11z"/>
<path d="M6795 4950 c-4 -7 0 -19 9 -28 13 -14 16 -14 16 -2 0 25 -16 44 -25
30z"/>
<path d="M7276 4903 c-6 -14 -5 -15 5 -6 7 7 10 15 7 18 -3 3 -9 -2 -12 -12z"/>
<path d="M5616 4825 c4 -8 11 -15 16 -15 6 0 5 6 -2 15 -7 8 -14 15 -16 15 -2
0 -1 -7 2 -15z"/>
<path d="M6814 4764 c-9 -26 -8 -38 2 -52 15 -20 15 -21 19 35 4 54 -7 62 -21
17z"/>
<path d="M5628 4773 c-10 -2 -18 -9 -18 -14 0 -14 16 -11 30 6 7 8 11 14 9 14
-2 -1 -12 -3 -21 -6z"/>
<path d="M5790 4771 c0 -6 4 -13 10 -16 6 -3 7 1 4 9 -7 18 -14 21 -14 7z"/>
<path d="M7255 4769 c-4 -6 -5 -12 -2 -15 2 -3 7 2 10 11 7 17 1 20 -8 4z"/>
<path d="M7216 4743 c-6 -14 -5 -15 5 -6 7 7 10 15 7 18 -3 3 -9 -2 -12 -12z"/>
<path d="M5690 4740 c-1 -8 -1 -22 0 -30 1 -12 -1 -13 -11 -2 -18 17 -29 15
-29 -7 0 -12 9 -20 28 -24 15 -3 28 -4 30 -3 1 2 -2 21 -7 42 -5 21 -10 32
-11 24z"/>
<path d="M5776 4734 c-4 -9 -2 -22 4 -29 5 -6 7 -15 3 -19 -4 -4 0 -4 9 -1 19
7 31 -38 15 -54 -6 -6 -8 -14 -4 -17 10 -10 15 -2 22 33 6 38 -38 116 -49 87z"/>
<path d="M5835 4741 c-3 -6 1 -11 9 -11 8 0 17 -8 20 -17 3 -11 4 -8 3 6 -2
26 -21 39 -32 22z"/>
<path d="M6940 4698 c0 -18 18 -34 28 -24 3 4 -2 14 -11 23 -16 16 -17 16 -17
1z"/>
<path d="M6606 4638 c-9 -31 -28 -160 -23 -164 2 -3 7 9 11 26 3 17 9 29 14
26 4 -2 7 19 5 47 -1 28 3 54 9 58 7 4 7 9 -1 13 -6 4 -13 1 -15 -6z"/>
<path d="M5670 4602 c0 -17 -3 -37 -6 -45 -4 -11 1 -13 19 -10 14 3 28 -1 32
-8 6 -9 2 -11 -14 -6 -14 3 -24 0 -28 -9 -7 -19 5 -64 18 -64 6 0 8 9 4 23
l-7 22 17 -22 c9 -13 23 -23 32 -23 11 0 14 6 8 23 -4 12 -9 34 -12 50 -3 15
-9 30 -14 33 -5 3 -9 10 -9 16 0 6 6 6 15 -2 13 -11 14 -10 9 4 -3 9 -11 16
-17 16 -6 0 -19 7 -29 17 -17 15 -18 15 -18 -15z"/>
<path d="M6840 4618 c0 -5 8 -25 17 -46 15 -33 17 -35 20 -14 3 13 -1 30 -7
38 -9 10 -9 14 -1 14 6 0 11 4 11 9 0 6 -9 9 -20 8 -11 -1 -20 -5 -20 -9z"/>
<path d="M7050 4606 c0 -31 6 -34 13 -6 3 11 1 23 -4 26 -5 3 -9 -6 -9 -20z"/>
<path d="M7175 4619 c-4 -6 -5 -12 -2 -15 2 -3 7 2 10 11 7 17 1 20 -8 4z"/>
<path d="M5775 4600 c3 -5 8 -10 11 -10 2 0 4 5 4 10 0 6 -5 10 -11 10 -5 0
-7 -4 -4 -10z"/>
<path d="M5926 4591 c-3 -5 1 -11 9 -15 9 -3 15 0 15 9 0 16 -16 20 -24 6z"/>
<path d="M5905 4560 c-3 -5 -1 -10 4 -10 6 0 11 5 11 10 0 6 -2 10 -4 10 -3 0
-8 -4 -11 -10z"/>
<path d="M6831 4554 c10 -13 10 -17 0 -24 -9 -5 -10 -10 -3 -14 12 -7 26 29
17 44 -3 5 -11 10 -17 10 -6 0 -5 -6 3 -16z"/>
<path d="M7163 4535 c0 -8 4 -12 9 -9 5 3 6 10 3 15 -9 13 -12 11 -12 -6z"/>
<path d="M5890 4532 c0 -5 7 -15 15 -22 8 -7 15 -8 15 -2 0 5 -7 15 -15 22 -8
7 -15 8 -15 2z"/>
<path d="M5965 4529 c4 -5 -1 -19 -11 -30 -9 -10 -12 -19 -6 -19 6 0 14 5 17
10 4 6 11 8 16 5 5 -4 9 -2 9 4 0 18 -12 41 -22 41 -5 0 -6 -5 -3 -11z"/>
<path d="M6553 4445 c0 -38 2 -53 4 -32 2 20 2 52 0 70 -2 17 -4 1 -4 -38z"/>
<path d="M6514 4463 c-4 -16 -7 -37 -5 -48 1 -11 2 -30 2 -42 -1 -13 3 -23 8
-23 5 0 11 32 13 70 3 73 -4 90 -18 43z"/>
<path d="M6900 4476 c0 -8 4 -17 9 -20 5 -4 7 3 4 14 -6 23 -13 26 -13 6z"/>
<path d="M5830 4466 c7 -9 8 -16 3 -16 -14 0 -6 -69 12 -96 17 -26 38 -33 29
-9 -4 8 -10 15 -14 15 -8 0 -4 75 4 89 3 4 -6 13 -21 20 -23 11 -25 10 -13 -3z"/>
<path d="M6850 4470 c0 -5 5 -10 10 -10 6 0 10 5 10 10 0 6 -4 10 -10 10 -5 0
-10 -4 -10 -10z"/>
<path d="M6430 4466 c0 -2 7 -19 15 -37 14 -34 20 -23 9 19 -5 18 -24 33 -24
18z"/>
<path d="M6642 4445 c0 -16 2 -22 5 -12 2 9 2 23 0 30 -3 6 -5 -1 -5 -18z"/>
<path d="M6862 4440 c-13 -11 -22 -20 -22 -22 1 -2 -2 -11 -6 -21 -11 -29 4
-32 17 -4 7 15 16 24 21 21 4 -3 11 2 14 10 11 28 -1 35 -24 16z"/>
<path d="M6590 4396 c-7 -24 -10 -50 -8 -58 3 -7 10 11 17 41 14 66 8 78 -9
17z"/>
<path d="M6908 4405 c-2 -19 0 -35 4 -35 4 0 8 16 8 35 0 19 -2 35 -4 35 -2 0
-6 -16 -8 -35z"/>
<path d="M7106 4415 c-9 -26 -7 -32 5 -12 6 10 9 21 6 23 -2 3 -7 -2 -11 -11z"/>
<path d="M6778 4395 c-3 -4 -14 -8 -25 -9 -10 -2 -20 -11 -21 -22 -2 -10 -13
-29 -24 -41 -14 -15 -19 -31 -16 -52 2 -16 1 -28 -4 -25 -7 5 -10 -3 -7 -23 1
-5 5 -7 10 -5 5 1 9 -10 9 -25 -1 -27 -1 -27 -15 -9 -8 11 -15 15 -15 9 0 -6
-3 -19 -7 -29 -4 -12 -3 -15 5 -10 8 5 12 -4 12 -28 0 -19 -4 -38 -10 -41 -5
-3 -10 -16 -11 -28 -1 -22 -1 -22 -7 1 -7 22 -8 22 -24 -10 -9 -18 -28 -67
-43 -108 -75 -211 -97 -264 -136 -330 -15 -25 -36 -72 -47 -105 -21 -63 -47
-121 -191 -424 -12 -25 -21 -51 -21 -58 0 -7 -4 -13 -10 -13 -13 0 -53 -89
-54 -122 -1 -14 -4 -24 -7 -22 -18 11 -17 -32 1 -51 26 -27 25 -30 -5 -33 -26
-2 -35 13 -12 21 6 2 9 7 6 11 -10 11 -38 -19 -41 -45 -2 -15 -10 -34 -17 -42
-7 -9 -9 -22 -5 -29 21 -34 28 -34 61 1 18 19 33 39 33 43 0 4 5 8 11 8 14 0
41 31 85 98 19 29 43 57 53 64 12 7 16 18 13 31 -4 17 -1 19 16 15 12 -4 25
-2 28 3 3 5 -2 9 -10 9 -9 0 -16 5 -16 10 0 6 7 10 16 10 8 0 12 5 9 10 -3 6
-2 10 3 10 15 0 72 62 89 98 8 17 19 32 24 32 10 0 -21 -55 -68 -121 -18 -26
-33 -51 -33 -58 0 -6 -5 -11 -11 -11 -6 0 -8 -8 -5 -17 6 -17 5 -17 -7 -1 -11
14 -13 13 -13 -15 0 -18 -3 -45 -7 -62 -6 -29 -6 -29 6 -5 6 14 17 31 24 38 7
7 16 25 19 40 7 27 34 74 34 58 0 -5 6 -3 14 3 10 8 15 9 18 1 2 -6 23 20 48
59 24 38 49 67 54 64 5 -4 6 -1 2 5 -9 15 28 74 64 101 17 12 30 30 29 39 -3
30 1 33 23 21 18 -10 20 -9 14 6 -4 10 2 31 15 51 11 19 17 34 13 34 -4 0 2 9
14 20 19 18 56 30 39 13 -4 -3 -2 -12 4 -19 8 -10 7 -23 -1 -49 -7 -20 -10
-45 -7 -55 3 -11 -1 -21 -10 -24 -12 -5 -11 -10 8 -24 14 -12 19 -23 14 -32
-6 -10 -10 -8 -17 9 -9 26 -28 19 -28 -10 0 -10 -5 -19 -11 -19 -12 0 -48 -40
-49 -53 0 -5 -13 -19 -29 -33 -16 -13 -52 -53 -81 -88 -28 -35 -62 -69 -74
-75 -28 -15 -90 -116 -81 -130 3 -6 13 -11 21 -11 19 0 18 -26 -2 -34 -12 -4
-15 -2 -10 9 3 9 -3 19 -15 25 -17 10 -30 1 -104 -76 -46 -48 -83 -92 -82 -98
1 -5 17 -18 35 -28 24 -14 37 -16 52 -8 28 15 37 12 14 -5 -18 -14 -18 -14 4
-8 12 3 22 9 22 14 0 5 7 6 15 3 10 -4 15 0 15 11 0 16 1 16 27 0 25 -17 26
-17 19 0 -4 13 -2 16 9 11 8 -3 15 -1 15 5 0 6 6 6 19 0 14 -8 20 -7 25 4 3 9
0 15 -9 15 -7 0 -17 5 -21 11 -5 8 1 10 20 7 19 -4 31 0 41 14 7 11 18 17 24
13 16 -9 13 -25 -3 -19 -8 3 -16 -4 -19 -18 -4 -13 -2 -24 3 -26 20 -7 10 -23
-10 -17 -14 4 -20 2 -20 -8 0 -24 23 -26 42 -4 14 15 15 23 7 34 -19 22 -4 25
20 4 19 -17 26 -18 43 -8 17 10 19 19 14 59 -6 45 2 62 28 63 5 0 16 11 25 25
15 24 15 24 -2 11 -9 -7 -17 -9 -17 -3 0 14 25 33 33 25 4 -3 7 -1 7 5 0 16
-13 15 -56 -3 -19 -8 -41 -12 -48 -9 -7 3 -21 -2 -30 -11 -9 -9 -16 -12 -16
-6 0 5 8 14 17 20 22 12 13 24 -11 15 -9 -3 -19 -17 -22 -30 -3 -13 -10 -24
-16 -24 -5 0 -7 4 -4 9 4 5 0 12 -6 14 -8 3 -6 6 4 6 11 1 15 6 12 16 -4 10 0
15 16 15 17 0 20 4 15 19 -4 14 0 23 15 31 11 6 20 7 20 1 0 -5 -6 -11 -12
-14 -9 -3 -8 -10 6 -23 10 -11 16 -14 12 -7 -4 7 1 21 11 33 11 12 18 38 18
65 1 25 -2 39 -7 32 -5 -7 -8 -8 -8 -1 0 6 11 21 25 34 29 27 33 42 8 33 -9
-3 13 24 48 62 35 37 63 72 62 76 -2 5 0 8 5 8 28 -5 42 3 43 24 0 12 3 16 6
9 6 -16 33 3 33 24 0 8 6 14 13 14 13 0 20 30 20 82 0 16 4 25 10 21 6 -3 7
-1 3 5 -3 6 -2 13 3 16 15 10 7 71 -9 72 -40 3 -41 4 -30 24 6 11 16 20 22 20
7 0 6 -5 -2 -15 -7 -9 -11 -18 -8 -20 14 -14 29 30 30 87 1 86 -1 98 -12 98
-5 0 -7 -6 -4 -14 3 -8 1 -17 -5 -21 -15 -9 -14 16 3 51 7 16 16 61 19 100 5
63 4 71 -11 70 -13 -1 -17 7 -15 37 1 21 -5 52 -12 70 -8 18 -14 26 -15 20 0
-26 -17 -12 -17 15 0 45 -13 103 -23 97 -5 -3 -12 -1 -15 5 -4 6 -2 9 3 8 5
-2 19 8 31 21 17 20 19 27 8 39 -10 13 -9 14 2 7 11 -6 13 -4 7 11 -5 10 -10
28 -13 39 -8 33 -26 65 -33 60 -5 -3 -11 2 -14 11 -5 12 -2 15 10 10 13 -5 14
-4 6 7 -7 8 -9 17 -5 20 12 12 23 7 23 -10 0 -10 5 -25 10 -33 7 -11 9 -6 6
19 -2 19 -10 40 -19 45 -11 9 -12 14 -2 23 7 7 16 9 19 6 3 -4 6 3 6 15 0 11
3 29 6 39 4 13 3 15 -4 4 -7 -9 -11 -10 -13 -2 -3 7 -7 9 -11 6z m-8 -45 c0
-5 -2 -10 -4 -10 -3 0 -8 5 -11 10 -3 6 -1 10 4 10 6 0 11 -4 11 -10z m-130
-360 c0 -5 -4 -10 -10 -10 -5 0 -10 5 -10 10 0 6 5 10 10 10 6 0 10 -4 10 -10z
m130 0 c0 -5 -5 -10 -11 -10 -5 0 -7 5 -4 10 3 6 8 10 11 10 2 0 4 -4 4 -10z
m-18 -53 c-14 -16 -6 -28 14 -20 22 8 27 -23 9 -51 -10 -14 -20 -24 -24 -22
-4 3 -7 -7 -6 -21 0 -14 -5 -28 -11 -30 -20 -7 -24 25 -9 67 8 22 12 47 8 55
-5 15 16 50 25 40 3 -2 0 -11 -6 -18z m-81 -80 c-10 -9 -11 -8 -5 6 3 10 9 15
12 12 3 -3 0 -11 -7 -18z m25 -22 c-3 -9 0 -24 6 -34 9 -15 8 -24 -5 -45 -10
-14 -24 -26 -32 -26 -8 0 -17 -11 -21 -25 -4 -14 -9 -23 -12 -20 -3 3 4 26 15
53 12 26 27 62 33 80 7 17 15 32 17 32 3 0 2 -7 -1 -15z m99 -305 c3 -5 1 -10
-4 -10 -6 0 -11 5 -11 10 0 6 2 10 4 10 3 0 8 -4 11 -10z m-4 -42 c-2 -7 -5
-37 -6 -66 -4 -56 -14 -83 -16 -41 -1 13 -1 29 0 35 1 6 -14 10 -34 9 -19 0
-35 2 -35 6 0 9 40 43 41 36 1 -4 2 -11 3 -16 2 -20 16 -23 22 -6 5 12 1 22
-11 31 -26 19 -13 46 17 35 13 -5 21 -15 19 -23z m-107 -133 c-4 -8 -10 -15
-15 -15 -4 0 -6 7 -3 15 4 8 10 15 15 15 4 0 6 -7 3 -15z m149 -10 c-3 -9 -8
-14 -10 -11 -3 3 -2 9 2 15 9 16 15 13 8 -4z m-553 -230 c0 -13 -35 -75 -42
-75 -5 0 -1 14 7 30 9 17 13 35 10 40 -3 6 1 10 9 10 9 0 16 -2 16 -5z m370
-34 c0 -5 -7 -12 -16 -15 -14 -5 -15 -4 -4 9 14 17 20 19 20 6z m-360 -46 c0
-18 -4 -23 -15 -19 -16 6 -20 26 -8 37 13 14 23 6 23 -18z m-70 -16 c0 -11 -4
-18 -9 -14 -6 3 -9 14 -8 25 2 24 17 15 17 -11z m341 -95 c-5 -16 -13 -28 -20
-27 -6 2 -17 -13 -25 -32 -15 -36 -36 -47 -36 -19 0 8 -4 13 -9 10 -17 -11 1
33 21 51 21 18 21 18 8 -7 l-13 -25 25 23 c13 12 26 21 29 20 2 -2 3 -1 2 1
-4 6 18 43 22 39 3 -2 1 -17 -4 -34z m-410 -11 c-12 -20 -14 -14 -5 12 4 9 9
14 11 11 3 -2 0 -13 -6 -23z m436 -23 c1 -11 -2 -20 -8 -20 -5 0 -9 9 -9 20 0
11 4 20 8 20 4 0 8 -9 9 -20z m-425 -65 c-5 -26 -16 -32 -27 -15 -4 6 -1 17 5
25 6 8 8 20 4 27 -6 11 -5 11 8 0 9 -7 13 -22 10 -37z m268 -16 c0 -5 -4 -9
-8 -9 -5 0 -9 7 -9 15 0 8 4 12 9 9 4 -3 8 -9 8 -15z m-95 -79 c3 -5 1 -10 -4
-10 -6 0 -11 5 -11 10 0 6 2 10 4 10 3 0 8 -4 11 -10z m237 -52 c-17 -17 -15
-38 5 -38 13 0 14 -3 6 -11 -9 -9 -15 -8 -26 2 -16 17 -6 59 15 59 9 0 9 -3 0
-12z"/>
<path d="M6756 3901 c-4 -7 -5 -15 -2 -18 9 -9 19 4 14 18 -4 11 -6 11 -12 0z"/>
<path d="M5971 4382 c-1 -7 -5 -10 -11 -7 -12 8 -13 -5 0 -25 8 -12 10 -12 15
2 4 10 5 23 2 30 -4 10 -6 10 -6 0z"/>
<path d="M6000 4368 c0 -18 5 -28 15 -28 19 0 19 11 0 36 -14 18 -14 18 -15
-8z"/>
<path d="M6711 4364 c0 -11 3 -14 6 -6 3 7 2 16 -1 19 -3 4 -6 -2 -5 -13z"/>
<path d="M5740 4350 c-8 -5 -12 -12 -9 -15 4 -3 12 1 19 10 14 17 11 19 -10 5z"/>
<path d="M6821 4344 c0 -11 3 -14 6 -6 3 7 2 16 -1 19 -3 4 -6 -2 -5 -13z"/>
<path d="M6868 4297 c-3 -31 -2 -35 9 -24 10 9 11 21 5 38 -9 22 -10 21 -14
-14z"/>
<path d="M5760 4283 c0 -29 30 -102 43 -103 5 0 5 21 1 46 -5 34 -4 45 5 40 6
-4 11 -14 11 -22 0 -8 12 -19 27 -25 22 -8 24 -12 13 -19 -8 -6 -10 -10 -4
-10 5 0 16 6 23 13 10 8 12 9 7 0 -9 -16 4 -64 15 -57 14 8 -1 57 -22 76 -11
9 -19 20 -18 25 9 36 -32 83 -44 51 -4 -10 -7 -10 -18 0 -22 20 -39 14 -39
-15z m90 -44 c0 -6 -4 -7 -10 -4 -5 3 -10 11 -10 16 0 6 5 7 10 4 6 -3 10 -11
10 -16z"/>
<path d="M6810 4266 c0 -9 5 -16 10 -16 6 0 10 4 10 9 0 6 -4 13 -10 16 -5 3
-10 -1 -10 -9z"/>
<path d="M7061 4273 c0 -6 -4 -20 -7 -30 -5 -14 -4 -15 5 -7 7 7 11 20 8 30
-3 11 -5 14 -6 7z"/>
<path d="M5731 4254 c0 -11 3 -14 6 -6 3 7 2 16 -1 19 -3 4 -6 -2 -5 -13z"/>
<path d="M6090 4231 c0 -5 5 -13 10 -16 6 -3 10 -2 10 4 0 5 -4 13 -10 16 -5
3 -10 2 -10 -4z"/>
<path d="M6835 4230 c3 -5 8 -10 11 -10 2 0 4 5 4 10 0 6 -5 10 -11 10 -5 0
-7 -4 -4 -10z"/>
<path d="M5815 4150 c9 -30 22 -46 31 -37 3 3 -4 19 -16 34 -22 28 -22 28 -15
3z"/>
<path d="M7027 4154 c-4 -4 -7 -17 -7 -28 1 -19 1 -20 11 -3 11 19 8 43 -4 31z"/>
<path d="M5882 4120 c9 -13 15 -15 34 -6 29 14 22 25 -15 24 -25 -1 -28 -4
-19 -18z"/>
<path d="M6006 4105 c-3 -8 -1 -15 3 -15 5 0 11 7 15 15 3 8 1 15 -3 15 -5 0
-11 -7 -15 -15z"/>
<path d="M5850 4095 c-10 -12 -10 -15 4 -15 9 0 16 7 16 15 0 8 -2 15 -4 15
-2 0 -9 -7 -16 -15z"/>
<path d="M6852 4090 c0 -14 2 -19 5 -12 2 6 2 18 0 25 -3 6 -5 1 -5 -13z"/>
<path d="M5925 4089 c-4 -6 -5 -11 -4 -12 2 -1 14 -8 27 -15 25 -14 31 1 8 24
-17 17 -23 17 -31 3z"/>
<path d="M7015 4089 c-4 -6 -5 -12 -2 -15 2 -3 7 2 10 11 7 17 1 20 -8 4z"/>
<path d="M5890 4049 c0 -5 5 -7 10 -4 6 3 10 8 10 11 0 2 -4 4 -10 4 -5 0 -10
-5 -10 -11z"/>
<path d="M7026 4043 c-6 -14 -5 -15 5 -6 7 7 10 15 7 18 -3 3 -9 -2 -12 -12z"/>
<path d="M5990 4015 c0 -5 5 -17 10 -25 5 -8 10 -10 10 -5 0 6 -5 17 -10 25
-5 8 -10 11 -10 5z"/>
<path d="M5920 3984 c0 -8 5 -12 10 -9 6 3 10 10 10 16 0 5 -4 9 -10 9 -5 0
-10 -7 -10 -16z"/>
<path d="M6085 3980 c-3 -5 -1 -10 5 -10 7 0 9 -8 5 -20 -4 -11 -2 -20 4 -20
13 0 15 47 2 55 -5 3 -12 1 -16 -5z"/>
<path d="M6030 3930 c0 -5 5 -10 11 -10 5 0 7 5 4 10 -3 6 -8 10 -11 10 -2 0
-4 -4 -4 -10z"/>
<path d="M5980 3901 c0 -6 4 -13 10 -16 6 -3 7 1 4 9 -7 18 -14 21 -14 7z"/>
<path d="M5955 3850 c-3 -5 -1 -10 4 -10 6 0 11 5 11 10 0 6 -2 10 -4 10 -3 0
-8 -4 -11 -10z"/>
<path d="M6180 3841 c0 -6 4 -13 10 -16 6 -3 7 1 4 9 -7 18 -14 21 -14 7z"/>
<path d="M6992 3820 c0 -14 2 -19 5 -12 2 6 2 18 0 25 -3 6 -5 1 -5 -13z"/>
<path d="M6110 3809 c0 -5 5 -7 10 -4 6 3 10 8 10 11 0 2 -4 4 -10 4 -5 0 -10
-5 -10 -11z"/>
<path d="M6090 3793 c0 -7 5 -15 10 -18 6 -3 10 -15 10 -26 0 -10 5 -19 11
-19 6 0 8 7 5 16 -4 9 -1 23 5 30 8 10 8 14 0 14 -6 0 -11 -6 -11 -12 0 -8 -7
-5 -15 6 -8 11 -15 15 -15 9z"/>
<path d="M6981 3764 c0 -11 3 -14 6 -6 3 7 2 16 -1 19 -3 4 -6 -2 -5 -13z"/>
<path d="M6325 3757 c-4 -10 -5 -21 -1 -24 10 -10 18 4 13 24 -4 17 -4 17 -12
0z"/>
<path d="M6880 3676 c0 -8 -3 -21 -6 -30 -3 -9 -2 -16 4 -16 13 0 22 49 11 56
-5 3 -9 -1 -9 -10z"/>
<path d="M6940 3666 c0 -9 5 -16 10 -16 6 0 10 4 10 9 0 6 -4 13 -10 16 -5 3
-10 -1 -10 -9z"/>
<path d="M6982 3650 c0 -14 2 -19 5 -12 2 6 2 18 0 25 -3 6 -5 1 -5 -13z"/>
<path d="M6086 3637 c3 -10 9 -15 12 -12 3 3 0 11 -7 18 -10 9 -11 8 -5 -6z"/>
<path d="M6929 3613 c-13 -16 -12 -17 4 -4 16 13 21 21 13 21 -2 0 -10 -8 -17
-17z"/>
<path d="M6972 3590 c0 -14 2 -19 5 -12 2 6 2 18 0 25 -3 6 -5 1 -5 -13z"/>
<path d="M6880 3561 c-12 -24 -13 -31 -1 -31 5 0 11 11 13 25 6 30 2 32 -12 6z"/>
<path d="M6961 3514 c0 -11 3 -14 6 -6 3 7 2 16 -1 19 -3 4 -6 -2 -5 -13z"/>
<path d="M6876 3464 c-9 -23 -2 -28 13 -10 7 8 8 17 3 20 -6 3 -13 -1 -16 -10z"/>
<path d="M6932 3419 c-5 -19 -7 -36 -5 -39 6 -7 22 23 17 31 -2 4 0 9 6 11 6
2 6 9 0 17 -6 11 -11 6 -18 -20z"/>
<path d="M5900 3396 c0 -8 4 -17 9 -20 5 -4 7 3 4 14 -6 23 -13 26 -13 6z"/>
<path d="M6907 3345 c-4 -8 -1 -17 6 -21 7 -4 9 -4 5 1 -4 4 0 14 10 21 15 12
15 13 1 14 -9 0 -19 -7 -22 -15z"/>
<path d="M5911 3324 c0 -11 3 -14 6 -6 3 7 2 16 -1 19 -3 4 -6 -2 -5 -13z"/>
<path d="M6886 3311 c-4 -5 -2 -12 3 -15 5 -4 12 -2 15 3 4 5 2 12 -3 15 -5 4
-12 2 -15 -3z"/>
<path d="M6640 3240 c-6 -12 -8 -29 -4 -38 5 -13 9 -8 15 18 9 42 5 50 -11 20z"/>
<path d="M5921 3224 c0 -11 3 -14 6 -6 3 7 2 16 -1 19 -3 4 -6 -2 -5 -13z"/>
<path d="M6843 3213 c-18 -40 -21 -79 -5 -75 6 1 12 -2 12 -8 0 -5 4 -10 8
-10 5 0 9 15 9 33 1 27 0 29 -8 12 -7 -14 -8 -6 -4 28 2 26 4 47 2 47 -1 0 -8
-12 -14 -27z"/>
<path d="M5895 3190 c-3 -6 1 -7 9 -4 18 7 21 14 7 14 -6 0 -13 -4 -16 -10z"/>
<path d="M6586 3181 c-4 -7 -5 -15 -2 -18 9 -9 19 4 14 18 -4 11 -6 11 -12 0z"/>
<path d="M5890 3160 c9 -6 10 -10 3 -10 -6 0 -11 -13 -11 -30 1 -35 18 -39 36
-9 12 19 11 20 -10 14 -21 -5 -21 -5 -6 8 13 10 15 16 6 25 -7 7 -17 12 -22
12 -6 0 -4 -5 4 -10z"/>
<path d="M6786 3154 c-4 -10 -13 -14 -26 -11 -15 4 -26 -2 -38 -21 -9 -15 -25
-35 -36 -44 -31 -29 -7 -21 28 9 17 14 30 30 29 35 -4 13 15 9 19 -4 2 -6 14
3 27 20 12 18 18 32 13 32 -6 0 -13 -7 -16 -16z"/>
<path d="M6565 3140 c-3 -5 -2 -10 4 -10 5 0 13 5 16 10 3 6 2 10 -4 10 -5 0
-13 -4 -16 -10z"/>
<path d="M6824 3106 c-3 -7 0 -25 6 -40 20 -54 40 -173 55 -326 8 -85 20 -159
25 -164 6 -6 10 -18 10 -28 0 -10 5 -18 11 -18 5 0 7 -5 3 -11 -9 -16 18 -30
33 -17 10 8 13 6 13 -6 0 -9 -5 -16 -11 -16 -6 0 -1 -12 10 -26 22 -27 30 -80
11 -69 -6 4 -18 4 -27 1 -13 -5 -12 -9 6 -25 12 -11 22 -21 21 -23 -1 -2 5
-18 13 -37 9 -20 17 -29 21 -22 11 17 23 13 29 -8 3 -15 0 -19 -14 -16 -12 3
-16 -1 -12 -11 3 -8 9 -14 13 -14 4 0 7 -16 5 -35 -2 -19 1 -35 6 -35 6 0 7 9
4 20 -8 25 10 27 24 3 20 -35 12 11 -18 100 -17 48 -28 87 -26 87 10 0 44 -79
60 -138 10 -34 20 -61 22 -58 15 14 93 -120 93 -159 0 -8 4 -15 9 -15 12 0 72
-140 65 -152 -4 -6 -35 -8 -74 -6 l-67 5 16 -29 c15 -27 15 -30 -1 -41 -11 -9
-14 -22 -11 -40 3 -17 1 -27 -6 -27 -7 0 -10 3 -7 8 2 4 -2 18 -10 32 -16 30
-18 10 -4 -39 12 -43 2 -117 -13 -102 -6 6 -19 11 -29 11 -19 0 -98 124 -98
154 0 9 -4 15 -9 12 -5 -3 -11 3 -14 14 -3 11 -13 23 -24 26 -10 3 -26 10 -37
16 -10 5 -34 12 -54 14 -66 8 -111 57 -97 107 6 22 6 22 -8 -2 -16 -26 -11
-65 9 -82 26 -22 14 -25 -63 -17 -98 10 -119 15 -67 17 37 1 64 15 64 33 0 4
-8 5 -17 1 -17 -6 -17 -5 0 14 14 16 15 23 6 29 -8 4 -10 3 -5 -4 11 -18 -5
-14 -26 5 -16 14 -21 15 -28 3 -5 -8 -3 -21 6 -34 18 -26 18 -36 0 -36 -17 0
-26 22 -26 66 0 37 -19 48 -21 12 -1 -22 -1 -22 -9 2 l-7 25 -10 -24 c-10 -24
-10 -24 -15 -3 -11 41 -28 23 -28 -29 0 -31 -4 -48 -10 -44 -5 3 -10 28 -10
56 0 47 1 49 28 50 34 1 62 6 69 13 11 10 -8 24 -27 19 -19 -5 -20 0 -20 61 0
65 -6 76 -27 55 -7 -7 -12 -6 -16 5 -6 14 15 16 181 16 l187 0 -38 26 c-38 25
-38 26 -37 87 2 87 2 90 -14 84 -8 -3 -25 2 -38 13 -15 12 -33 16 -51 13 -15
-3 -33 -1 -40 4 -18 14 -111 17 -103 4 4 -6 23 -11 42 -11 21 0 33 -4 29 -10
-9 -14 -58 -12 -76 3 -19 15 -52 67 -43 67 4 0 16 -7 26 -17 10 -9 18 -11 18
-6 0 6 -7 16 -15 23 -8 7 -15 19 -15 27 0 12 -3 12 -16 -1 -16 -17 -34 -13
-34 7 0 7 4 6 10 -3 8 -12 10 -10 10 9 0 16 4 21 15 17 8 -3 15 0 16 7 0 7 5
0 11 -15 10 -29 22 -35 33 -18 3 6 -1 17 -9 26 -9 8 -16 22 -16 30 0 17 -36
19 -43 2 -3 -8 -6 -6 -6 5 -1 21 -15 22 -35 2 -17 -18 -26 -19 -26 -4 0 6 10
20 23 31 l22 20 -25 -14 c-14 -8 -29 -24 -34 -35 -10 -22 -66 -63 -90 -67 -8
-1 -23 -10 -34 -19 -10 -9 -24 -17 -30 -17 -6 0 -9 -7 -6 -15 4 -9 0 -15 -10
-15 -9 0 -16 -4 -16 -10 0 -5 -16 -10 -35 -10 -32 0 -40 -8 -36 -33 1 -4 -6
-10 -14 -13 -8 -4 -15 -12 -15 -20 0 -8 -4 -14 -10 -14 -5 0 -10 -4 -10 -10 0
-5 6 -9 13 -7 6 1 11 -4 9 -11 -1 -7 -4 -20 -6 -30 -7 -35 -19 -52 -38 -52
-11 0 -28 -5 -39 -10 -10 -6 -61 -11 -111 -11 -136 -1 -133 -2 -118 16 7 8 19
15 27 15 8 0 13 6 11 12 -3 7 4 22 14 33 37 39 56 99 21 64 -12 -12 -33 -4
-33 12 0 5 20 19 45 31 42 20 61 41 33 35 -27 -5 -19 56 20 161 2 7 -5 12 -22
12 -14 0 -26 4 -26 9 0 20 13 41 24 41 30 0 49 29 62 96 7 38 13 80 14 93 0
24 0 24 -22 5 -15 -12 -18 -13 -10 -3 7 9 10 25 6 35 -5 16 -4 17 6 4 10 -13
11 -12 5 5 -4 11 -15 56 -24 100 -13 66 -20 82 -41 93 -23 13 -23 13 -2 9 19
-4 22 -1 21 21 0 18 -3 22 -7 12 -4 -8 -14 -15 -22 -15 -12 0 -16 -18 -18 -88
-2 -78 0 -93 20 -125 36 -58 28 -130 -23 -209 -33 -50 -43 -78 -54 -145 -17
-106 -47 -192 -96 -268 -9 -14 -19 -49 -22 -78 -3 -29 -15 -66 -27 -82 -39
-55 -78 -146 -100 -235 -12 -49 -29 -105 -38 -125 -26 -61 -64 -134 -78 -151
-8 -8 -14 -18 -14 -22 0 -3 25 -20 56 -38 55 -31 59 -32 214 -37 127 -4 174
-1 246 13 109 22 298 26 333 6 17 -10 108 -17 315 -25 357 -13 422 -13 466 3
46 16 178 42 265 51 102 11 115 17 115 52 0 32 -13 55 -76 138 -42 55 -77 147
-119 311 -13 52 -25 75 -56 105 -21 21 -39 46 -39 56 0 20 -20 56 -55 99 -12
15 -39 62 -59 105 -21 44 -53 111 -71 149 -35 74 -54 151 -54 223 0 40 -28
167 -51 226 -5 15 -8 32 -4 37 3 5 2 15 -3 21 -4 7 -6 25 -5 39 3 20 -2 28
-18 32 -12 3 -23 0 -26 -7z m-878 -201 c-2 -14 -16 -22 -16 -10 0 3 0 10 0 15
0 6 4 10 9 10 5 0 8 -7 7 -15z m25 -132 c-12 -20 -14 -14 -5 12 4 9 9 14 11
11 3 -2 0 -13 -6 -23z m-14 -55 c2 -17 0 -19 -7 -8 -5 8 -6 18 -4 22 8 12 10
10 11 -14z m-67 -232 c0 -3 -4 -8 -10 -11 -5 -3 -10 -1 -10 4 0 6 5 11 10 11
6 0 10 -2 10 -4z m557 -23 c37 -48 36 -53 -6 -53 -33 0 -39 3 -34 16 4 12 7
13 14 3 14 -23 23 0 11 26 -13 29 -5 33 15 8z m-69 -39 c-9 -9 -34 -18 -55
-20 l-38 -4 28 16 c16 8 35 13 43 10 8 -3 14 -1 14 4 0 6 5 10 12 10 8 0 6 -6
-4 -16z m52 -80 c0 -8 -4 -12 -10 -9 -5 3 -10 10 -10 16 0 5 5 9 10 9 6 0 10
-7 10 -16z m170 -45 c0 -16 -4 -29 -10 -29 -5 0 -10 16 -10 36 0 21 4 33 10
29 6 -3 10 -19 10 -36z m110 -113 c0 -5 -7 -3 -15 4 -8 7 -15 20 -15 28 0 13
3 12 15 -4 8 -10 15 -23 15 -28z m-740 -24 c0 -5 -9 -35 -20 -67 -11 -33 -19
-64 -17 -70 2 -5 15 24 29 65 l25 75 182 3 183 2 -5 -32 c-3 -18 -2 -42 3 -53
6 -15 9 -6 9 33 1 28 6 52 11 52 6 0 10 -25 10 -55 0 -53 11 -72 24 -39 11 28
7 74 -6 74 -9 0 -8 4 2 10 27 17 67 11 82 -12 18 -27 30 -98 18 -98 -13 0 -40
30 -40 43 0 7 4 6 10 -3 6 -9 10 -10 10 -3 0 6 3 20 7 30 3 10 3 15 -1 11 -5
-4 -18 2 -30 13 l-21 20 -10 -73 c-7 -51 -13 -67 -18 -54 -6 15 -10 17 -20 7
-7 -7 -12 -17 -12 -24 0 -7 -16 -13 -35 -15 -43 -4 -46 -10 -49 -74 -2 -55 -6
-68 -24 -68 -8 0 -8 3 1 12 18 18 15 85 -3 92 -12 4 -14 2 -6 -11 11 -21 -35
-87 -56 -79 -17 7 -17 -20 0 -28 10 -5 10 -7 0 -12 -7 -3 -13 -14 -13 -24 0
-30 -16 -32 -29 -3 -10 21 -9 29 3 42 14 15 13 18 -7 30 -18 11 -20 11 -9 0
21 -22 14 -28 -25 -22 -21 3 -39 7 -41 8 -1 1 13 29 32 63 27 47 31 62 20 66
-9 3 -14 -1 -14 -13 0 -10 -9 -29 -20 -42 -23 -29 -27 -13 -4 19 9 13 14 26
11 29 -8 8 -39 -56 -32 -67 10 -16 -13 -47 -40 -54 -14 -4 -25 -11 -25 -16 0
-6 -7 -10 -15 -10 -8 0 -15 -8 -15 -17 0 -13 -3 -14 -12 -5 -18 18 -28 15 -28
-8 0 -11 -5 -20 -11 -20 -6 0 -9 -7 -6 -15 4 -8 2 -17 -4 -21 -6 -3 -24 -35
-41 -70 -29 -62 -58 -99 -58 -76 0 6 -7 9 -15 6 -12 -5 -12 0 -4 28 15 54 23
161 10 154 -7 -5 -10 1 -8 16 3 19 11 23 41 25 63 2 53 13 -12 13 -72 0 -72 0
-38 88 14 34 21 62 18 62 -4 0 -20 -33 -35 -73 -24 -63 -31 -73 -54 -75 -15
-1 -35 -10 -45 -19 -18 -16 -18 -16 -12 2 6 15 4 17 -10 12 -29 -11 -28 16 5
83 17 36 34 67 38 70 3 3 19 34 36 70 39 86 41 88 83 93 73 7 152 7 152 -1z
m510 -132 c0 -5 -2 -10 -4 -10 -3 0 -8 5 -11 10 -3 6 -1 10 4 10 6 0 11 -4 11
-10z m-59 -61 c-8 -21 -10 -22 -16 -6 -10 23 2 54 16 40 6 -6 6 -18 0 -34z
m39 22 c0 -6 -4 -13 -10 -16 -5 -3 -10 1 -10 9 0 9 5 16 10 16 6 0 10 -4 10
-9z m-135 -41 c3 -5 1 -10 -4 -10 -6 0 -11 5 -11 10 0 6 2 10 4 10 3 0 8 -4
11 -10z m135 -39 c0 -17 -4 -33 -10 -36 -6 -4 -10 8 -10 29 0 20 5 36 10 36 6
0 10 -13 10 -29z m80 19 c0 -5 -2 -10 -4 -10 -3 0 -8 5 -11 10 -3 6 -1 10 4
10 6 0 11 -4 11 -10z m-136 -46 c4 -10 1 -14 -6 -12 -15 5 -23 28 -10 28 5 0
13 -7 16 -16z m-39 -4 c3 -5 1 -10 -4 -10 -6 0 -11 5 -11 10 0 6 2 10 4 10 3
0 8 -4 11 -10z m61 -81 c-3 -17 -6 -46 -7 -63 l-1 -31 -10 38 c-11 41 -4 87
13 87 7 0 9 -11 5 -31z m-649 -1 c-3 -8 -6 -5 -6 6 -1 11 2 17 5 13 3 -3 4
-12 1 -19z m283 13 c0 -6 -4 -13 -10 -16 -5 -3 -10 1 -10 9 0 9 5 16 10 16 6
0 10 -4 10 -9z m-99 -44 c-10 -9 -11 -8 -5 6 3 10 9 15 12 12 3 -3 0 -11 -7
-18z m-188 -2 c-3 -9 -8 -14 -10 -11 -3 3 -2 9 2 15 9 16 15 13 8 -4z m897
-37 c25 -41 25 -49 3 -41 -29 10 -53 35 -53 55 0 29 28 21 50 -14z"/>
<path d="M6310 2150 c0 -5 -19 -9 -42 -8 -82 1 -88 -1 -88 -22 0 -22 10 -26
26 -11 5 6 34 11 64 13 43 2 56 7 58 21 2 9 -1 17 -7 17 -6 0 -11 -4 -11 -10z"/>
<path d="M6250 2092 c0 -7 -15 -12 -39 -12 -35 0 -39 -3 -45 -31 -5 -28 -8
-30 -23 -18 -14 12 -16 12 -11 -1 2 -8 14 -16 26 -18 16 -2 25 4 32 22 7 20
17 26 39 26 33 0 49 16 32 33 -8 8 -11 8 -11 -1z"/>
<path d="M5975 1971 c0 -16 3 -27 8 -24 4 2 7 15 7 29 0 13 -3 24 -7 24 -5 0
-8 -13 -8 -29z"/>
<path d="M6051 1970 c0 -33 1 -34 11 -12 8 17 8 26 0 34 -9 9 -12 4 -11 -22z"/>
<path d="M6173 1958 c-19 -25 -22 -46 -7 -52 8 -3 14 1 14 10 0 8 7 17 15 20
19 8 20 34 1 34 -7 0 -18 -6 -23 -12z"/>
<path d="M6136 1945 c-3 -9 -6 -22 -5 -28 0 -7 5 -1 10 12 5 13 8 26 5 28 -2
2 -6 -3 -10 -12z"/>
<path d="M6000 1907 c0 -20 -7 -30 -25 -37 -31 -12 -32 -20 -1 -20 29 0 57 53
37 73 -8 8 -11 4 -11 -16z"/>
<path d="M6745 3010 c3 -5 8 -10 11 -10 2 0 4 5 4 10 0 6 -5 10 -11 10 -5 0
-7 -4 -4 -10z"/>
<path d="M6677 2883 c-4 -3 -7 -13 -7 -22 1 -13 3 -13 11 2 11 19 8 33 -4 20z"/>
<path d="M6267 2857 c-3 -8 -1 -20 4 -28 7 -11 9 -10 9 4 0 10 4 15 10 12 6
-3 7 1 4 9 -8 20 -20 21 -27 3z"/>
<path d="M6607 2723 c-4 -3 -7 -13 -7 -22 1 -13 3 -13 11 2 11 19 8 33 -4 20z"/>
<path d="M6027 2684 c-11 -11 -8 -46 3 -39 6 3 10 0 10 -8 0 -7 7 -14 15 -14
19 0 19 11 2 29 -8 7 -16 19 -18 26 -2 7 -8 10 -12 6z"/>
<path d="M6705 2630 c-3 -5 -2 -10 4 -10 5 0 13 5 16 10 3 6 2 10 -4 10 -5 0
-13 -4 -16 -10z"/>
<path d="M6007 2623 c-11 -11 -8 -20 7 -20 8 0 12 6 9 14 -6 15 -7 15 -16 6z"/>
<path d="M6160 2595 c-7 -13 -16 -24 -19 -23 -18 2 -29 -4 -34 -16 -4 -10 -1
-13 9 -9 7 3 14 9 14 15 0 5 4 7 10 3 9 -6 46 42 38 50 -3 3 -11 -6 -18 -20z"/>
<path d="M6536 2585 c4 -8 10 -12 15 -9 14 8 10 24 -6 24 -9 0 -12 -6 -9 -15z"/>
<path d="M6173 2558 c-24 -16 -43 -33 -43 -39 0 -14 16 -11 30 5 6 8 17 13 24
10 20 -8 50 21 40 38 -8 14 -15 12 -51 -14z"/>
<path d="M6626 2535 c4 -8 8 -15 10 -15 2 0 4 7 4 15 0 8 -4 15 -10 15 -5 0
-7 -7 -4 -15z"/>
<path d="M6057 2515 c-10 -14 -13 -26 -7 -30 5 -3 10 0 10 8 0 8 7 17 15 21 8
3 15 10 15 16 0 17 -14 11 -33 -15z"/>
<path d="M6595 2470 c3 -5 11 -10 16 -10 6 0 7 5 4 10 -3 6 -11 10 -16 10 -6
0 -7 -4 -4 -10z"/>
<path d="M6557 2454 c6 -17 5 -18 -12 -4 -17 14 -17 14 -4 -8 8 -12 15 -18 17
-12 2 6 8 8 13 4 15 -9 10 13 -6 26 -13 11 -14 10 -8 -6z"/>
<path d="M5929 2433 c-13 -16 -12 -17 4 -4 16 13 21 21 13 21 -2 0 -10 -8 -17
-17z"/>
<path d="M6960 2419 c0 -5 5 -7 10 -4 6 3 10 8 10 11 0 2 -4 4 -10 4 -5 0 -10
-5 -10 -11z"/>
<path d="M6757 2394 c-12 -12 -8 -26 5 -18 6 4 26 7 45 6 19 -1 32 2 29 6 -6
10 -70 14 -79 6z"/>
<path d="M5968 2383 c6 -2 18 -2 25 0 6 3 1 5 -13 5 -14 0 -19 -2 -12 -5z"/>
<path d="M6980 2285 c0 -5 5 -17 10 -25 5 -8 10 -10 10 -5 0 6 -5 17 -10 25
-5 8 -10 11 -10 5z"/>
<path d="M6077 2273 c-4 -3 -7 -13 -7 -22 1 -13 3 -13 11 2 11 19 8 33 -4 20z"/>
<path d="M7011 2163 c-1 -7 7 -34 17 -60 11 -26 22 -57 26 -67 3 -10 9 -17 12
-14 2 3 -9 39 -25 79 -17 41 -30 69 -30 62z"/>
<path d="M6742 2085 c-17 -41 -26 -77 -21 -80 5 -4 9 0 9 8 0 7 11 42 25 77
14 35 23 65 21 67 -2 2 -17 -30 -34 -72z"/>
<path d="M6590 2130 c0 -17 87 -16 105 1 5 5 -13 9 -48 9 -31 0 -57 -4 -57
-10z"/>
<path d="M6820 2108 c0 -18 18 -34 28 -24 3 4 -2 14 -11 23 -16 16 -17 16 -17
1z"/>
<path d="M6547 2103 c-2 -4 -1 -16 2 -26 6 -16 9 -17 19 -4 10 11 9 17 -2 26
-8 7 -16 8 -19 4z"/>
<path d="M6592 2069 c2 -6 7 -10 11 -10 4 1 16 1 27 1 11 0 20 5 20 10 0 6
-14 10 -31 10 -17 0 -29 -5 -27 -11z"/>
<path d="M6870 2042 c0 -11 22 -32 32 -32 5 0 4 9 -2 20 -11 20 -30 28 -30 12z"/>
<path d="M7161 1998 c-1 -11 51 -129 56 -125 2 2 -10 33 -26 68 -16 35 -30 61
-30 57z"/>
<path d="M6830 1987 c0 -2 7 -26 15 -54 19 -63 47 -83 112 -82 l48 2 -45 6
c-65 10 -87 28 -102 83 -6 26 -15 48 -20 48 -4 0 -8 -1 -8 -3z"/>
<path d="M6914 1974 c3 -9 9 -27 12 -40 3 -13 10 -24 14 -24 4 0 2 18 -3 40
-6 22 -15 40 -20 40 -5 0 -6 -7 -3 -16z"/>
<path d="M6800 1960 c0 -5 5 -10 11 -10 5 0 7 5 4 10 -3 6 -8 10 -11 10 -2 0
-4 -4 -4 -10z"/>
<path d="M7010 1869 c0 -17 29 -29 65 -28 12 0 5 5 -15 11 -19 5 -38 15 -42
21 -5 8 -8 6 -8 -4z"/>
</g>
</svg>
