<?xml version="1.0" standalone="no"?>
<!DOCTYPE svg PUBLIC "-//W3C//DTD SVG 20010904//EN"
 "http://www.w3.org/TR/2001/REC-SVG-20010904/DTD/svg10.dtd">
<svg version="1.0" xmlns="http://www.w3.org/2000/svg"
 width="1406.000000pt" height="980.000000pt" viewBox="0 0 1406.000000 980.000000"
 preserveAspectRatio="xMidYMid meet">

<g transform="translate(0.000000,980.000000) scale(0.100000,-0.100000)"
fill="#000000" stroke="none">
<path d="M6815 8744 c-175 -10 -354 -28 -482 -50 -1097 -182 -2052 -844 -2611
-1809 -256 -442 -416 -924 -478 -1445 -22 -177 -25 -629 -6 -795 123 -1078
644 -1990 1503 -2630 508 -378 1126 -621 1789 -701 179 -22 618 -25 790 -5
871 98 1615 446 2224 1041 617 602 982 1335 1101 2210 25 180 31 600 11 800
-73 759 -350 1433 -835 2030 -113 140 -369 395 -509 508 -583 473 -1260 755
-1979 826 -155 16 -416 25 -518 20z m540 -109 c348 -41 639 -115 951 -240 153
-62 424 -195 431 -212 2 -6 -35 -76 -83 -155 -48 -78 -99 -162 -113 -186 -23
-39 -29 -43 -56 -38 -84 15 -401 47 -562 57 -185 11 -399 4 -709 -23 l-141
-12 -79 46 c-331 191 -627 294 -1034 363 -52 8 -100 17 -106 19 -7 3 -5 32 8
93 10 48 18 102 18 120 0 31 2 33 68 52 184 55 440 103 642 120 69 6 141 13
160 15 75 9 482 -4 605 -19z m-1385 -491 c387 -68 612 -147 963 -338 l87 -48
0 -57 c0 -141 -44 -582 -86 -859 -13 -89 -24 -167 -24 -172 0 -4 -57 -41 -127
-81 -71 -40 -366 -209 -656 -376 -291 -167 -535 -303 -542 -303 -38 0 -571
218 -874 358 l-144 66 6 216 c9 346 45 521 194 945 26 72 51 136 57 144 30 39
480 318 657 407 202 101 281 134 314 129 17 -3 95 -17 175 -31z m3002 -103
c746 -500 1287 -1268 1504 -2134 l27 -109 -74 -68 c-41 -38 -77 -69 -80 -70
-4 0 -39 41 -79 92 -211 267 -394 429 -715 635 -60 38 -128 80 -151 93 -36 21
-49 40 -122 184 -252 499 -397 735 -619 1009 -34 44 -63 84 -63 89 0 6 39 74
86 152 127 206 133 216 144 216 5 0 69 -40 142 -89z m-4412 -360 c35 -17 85
-35 112 -42 37 -10 47 -17 43 -28 -4 -9 -35 -101 -70 -206 -118 -352 -152
-535 -162 -880 l-6 -210 -57 -80 c-96 -133 -304 -453 -371 -570 -70 -122 -165
-320 -224 -465 -21 -52 -43 -101 -48 -107 -7 -10 -67 -13 -240 -13 l-230 0 6
133 c38 793 367 1606 890 2197 39 44 289 300 293 300 1 0 30 -13 64 -29z
m2584 -1208 c221 -123 594 -337 948 -543 l247 -144 -5 -756 c-5 -539 -10 -758
-18 -767 -17 -18 -331 -208 -551 -335 -236 -135 -542 -301 -710 -385 l-120
-60 -405 234 c-223 129 -506 294 -630 365 -124 72 -237 138 -252 146 -25 14
-27 21 -34 111 -7 104 2 1250 12 1398 l6 93 42 23 c201 114 1225 703 1241 713
11 8 24 14 29 14 5 0 95 -48 200 -107z m2515 -261 c140 -98 196 -144 325 -270
86 -85 265 -295 311 -366 26 -40 38 -277 32 -683 -3 -303 -6 -366 -19 -385
-82 -122 -433 -486 -588 -609 -89 -71 -298 -217 -382 -268 l-37 -22 -63 42
c-113 77 -350 249 -538 392 -102 78 -206 157 -232 176 l-47 36 0 766 -1 767
158 119 c208 159 404 298 590 422 l153 101 111 -69 c62 -38 164 -105 227 -149z
m-5814 -1387 c187 -446 310 -667 557 -994 73 -98 78 -107 78 -155 0 -106 21
-406 35 -521 27 -211 73 -384 176 -662 12 -35 21 -64 18 -66 -2 -2 -58 -20
-124 -40 l-119 -36 -96 98 c-140 143 -229 246 -341 397 -435 583 -684 1279
-716 1996 l-6 147 149 4 c82 1 187 3 234 2 l84 0 71 -170z m6575 -505 l83 -80
-28 -112 c-207 -850 -758 -1631 -1504 -2134 -71 -48 -136 -84 -143 -81 -7 2
-62 87 -122 187 l-108 181 48 62 c116 149 230 304 289 393 69 104 237 430 334
649 l62 140 87 55 c318 200 557 406 810 698 59 67 107 122 108 122 0 0 38 -36
84 -80z m-4330 -448 c223 -129 441 -255 485 -281 44 -26 135 -79 202 -117 140
-79 125 -53 163 -274 38 -220 80 -659 80 -836 l0 -72 -127 -57 c-350 -158
-682 -267 -1019 -336 l-111 -22 -209 108 c-341 176 -712 397 -739 439 -26 39
-126 327 -160 460 -18 72 -40 181 -49 241 -19 139 -39 438 -34 530 l3 70 300
133 c165 74 390 174 500 222 l200 87 55 -30 c30 -17 237 -136 460 -265z m2546
-1824 l113 -187 -27 -19 c-42 -30 -237 -126 -368 -181 -425 -178 -843 -266
-1314 -278 -388 -9 -734 32 -1078 130 -74 21 -77 23 -84 57 -28 132 -45 225
-43 228 2 2 61 16 131 32 338 76 590 162 967 328 l149 65 201 -17 c419 -33
628 -31 1037 14 91 10 174 17 184 16 14 -1 51 -54 132 -188z"/>
</g>
</svg>
